<svg xmlns="http://www.w3.org/2000/svg" viewBox="0 0 406.76 173.91" alt="LAArtsOnline.com | Arts In Los Angeles">
	<path
		style="fill: hsl(0, 0%, 100%)"
		d="M418.11,38.74a6.62,6.62,0,0,0-2.69-2.66,7.08,7.08,0,0,0-6.91,0,6.66,6.66,0,0,0-2.69,2.65c-.1.19-.18.37-.27.56a11.65,11.65,0,0,0-.36-2.14,9.15,9.15,0,0,0-2.73-4c-.16-.14-.3-.28-.44-.42-.76-.81-1.41-1.47-2.25-2.28-.21-.21-.51-.53-.82-.87-1.53-1.66-3.43-3.73-6-4.33a16,16,0,0,0-3.75-.34c-.75,0-1.48,0-2.19,0l-.68,0H386c-.64,0-1.34-.06-2.08-.13s-1.74-.14-2.67-.14h-.1c-1.57,0-3.15.05-4.74.08-2,0-4,.09-6,.09l-5.43-.06c-3.63-.05-8.14-.11-10.26-.11-.57,0-1.23,0-1.93-.07s-1.53-.07-2.26-.07a15.5,15.5,0,0,0-1.64.08c-1.35.17-5.39.67-7.5,3.86-1.28,2-1.61,4.74-1,8.69l0,.31,0,.08c-.53,0-1.06-.08-1.53-.13l-.69-.06-1.25-.1c-1.54-.13-3.13-.27-4.7-.27h-.77c-1.6.06-3.2.08-4.91.08-5.24,0-10.25-.24-15.56-.5-2.6-.12-5.29-.25-8-.35-.58,0-1.29-.09-2.05-.16-1.14-.11-2.43-.24-3.68-.24a10,10,0,0,0-5.3,1.22c-3.93,2.36-3.51,6.88-3.23,9.87a20.29,20.29,0,0,1,.14,2.27h-.15c-.6-.05-1.22-.1-1.84-.11h-1.36c-2,0-3.6.06-4.57.11-2,.09-3.89.13-5.75.13s-3.65,0-5.49-.13c-.79,0-1.6-.14-2.45-.24s-2-.23-3.11-.28c-3.64-.18-7.59-.35-12.06-.35l-1.48,0c-.42,0-.85,0-1.27,0v-.17c0-.54,0-1.09,0-1.67-.3-5.4-3.32-8-5.53-9.9l-.22-.2a13.28,13.28,0,0,1-1.3-1.41,15.76,15.76,0,0,0-2.64-2.67c-2.18-1.65-5.27-1.88-8.28-1.88l-1.91,0-1.61,0h-10.4c-2.15,0-4.24.12-6.26.24-1.39.08-2.71.16-4,.19l-4.49.16c-1.83.07-3.72.14-5.57.19-.64,0-1.33,0-2.06,0-7.09,0-17.77-.7-17.87-.71h-.39s-4.15.12-7.6.12c-1,0-1.81,0-2.48,0-.84,0-1.78-.12-2.77-.22-1.31-.13-2.67-.27-4.05-.27a13.29,13.29,0,0,0-4.19.59c-5.69,1.87-5.49,8.12-5.4,10.79.07,2,.21,4.11.34,6,.06.89.12,1.71.16,2.39.12,2.08.16,4.6.2,7,0,1.89.06,3.83.13,5.58v.25l-.06-.06-.18-.18a52.16,52.16,0,0,0-3.83-4c-1.38-1.36-2.19-2.16-2.77-2.65l-.08-.08a17.73,17.73,0,0,0-3-2.61c-1.72-1.07-4-1.55-7.32-1.55-.94,0-1.87,0-2.73.07-5.07.23-10.55.44-16.3.44-3.11,0-6.12-.06-9.2-.18-1.4-.06-2.9-.08-4.59-.08s-3.44,0-5.11,0S92.73,52,91,52l-2.73,0h-.79c-1,0-2,0-3,.06s-2,.07-3.09.07c-.58,0-1.12,0-1.66,0L78.28,52c-1-.06-2-.13-3.09-.13a9.75,9.75,0,0,0-6,1.55,6.75,6.75,0,0,0-.69.6c0-2.28.06-4.56.24-6.92.3-3.85-.18-6.88-1.47-9.25a12.36,12.36,0,0,0-3.17-3.72A10.42,10.42,0,0,1,63,33c-.27-.32-.53-.65-.78-1a13.38,13.38,0,0,0-4.51-4.1,11.71,11.71,0,0,0-5.36-1l-1.11,0h-.88c-.58,0-1.21,0-1.87-.09s-1.49-.1-2.27-.1c-.25,0-.5,0-.75,0-.75,0-1.46.05-2.19.05s-1.45,0-2.2-.05c-1.24-.06-2.51-.09-3.89-.09-3.29,0-6.64.17-9.87.34-1.83.1-3.71.2-5.57.27l-1,0c-2,0-3.81.06-5.34.93-3.58,2-3.2,6.81-2.92,10.36,0,.3,0,.59.06.86.47,7,.73,14.53.73,21.09,0,5,.28,9.73.59,14.5.25,3.77.44,7.78.64,12l.1,2.08c.17,3.42.44,6.88.7,10.22.27,3.51.55,7.14.71,10.6,0,.92,0,1.89,0,2.92,0,1.47,0,3,.08,4.6.45,5.6,3.39,9.13,6.12,12,.83.87,1.66,1.92,2.53,3l.53.68a11.45,11.45,0,0,0,6.39,4.55,19.52,19.52,0,0,0,4.39.42c1.15,0,2.32-.06,3.46-.12s2.21-.11,3.27-.11c3.77,0,7.3,0,10.71.09s6.71.08,10.25.08c.79,0,1.55,0,2.28-.1s1.38-.09,2.07-.09h.6c.28,0,.54,0,.81,0,.45,0,.91,0,1.35,0l1,0,.1.15a11.75,11.75,0,0,0,2.13,2.47,27.54,27.54,0,0,1,2.66,2.65l.68.82a12.53,12.53,0,0,0,3.19,3.07A15.39,15.39,0,0,0,86.91,149a55.92,55.92,0,0,0,6,.27c1.79,0,3.65.05,5.41.18l1.59.17a36.44,36.44,0,0,0,4.24.28l1,0h1.24a9.59,9.59,0,0,0,5.45-1.22c2.92-2,2.89-5.44,2.86-8V140c0-1.34,0-2.62-.08-3.86,0,.15.11.31.16.47a9,9,0,0,0,2.41,3.37l.43.42a18.65,18.65,0,0,1,1.55,1.89c.42.56.89,1.18,1.52,1.92a67.28,67.28,0,0,0-15.34,20.72q-.21.45-.42.87a29.92,29.92,0,0,0-1.76,4.15,23,23,0,0,0-.68,3.17,19.3,19.3,0,0,1-.38,2l-.43.24-.62.37c-1,.59-2,1.19-3,1.79-1.84,1.12-3.63,2.21-5.49,3.2a20.42,20.42,0,0,0,1-2.72c1.85-6.43,0-12.11-4.75-14.83a10.45,10.45,0,0,0-5.19-1.36,12.91,12.91,0,0,0-5.74,1.43,35.18,35.18,0,0,0-6.26,3.7l-.09-.2a11.61,11.61,0,0,0-10.68-6.41,13.58,13.58,0,0,0-2.44.22,23.06,23.06,0,0,0-4.18,1.21c-.55.2-1.07.39-1.6.55-1.13.36-3.29.92-4.72,1.29l-.54.14-.92.16c-2.59.4-5.54.87-6.92,3.3a4.18,4.18,0,0,0-.31.64,9.87,9.87,0,0,0-6-2.14H33c-5,.08-8.56,3.55-9.91,4.86A19.83,19.83,0,0,0,17.71,179c-1.32,4.47-.94,9.25,1,12.49s5.18,5.23,9.71,6a21.94,21.94,0,0,0,3.5.29c7,0,12.17-3.67,15.57-6.1a28.08,28.08,0,0,0,6.42-6.54l0,0c1.24-1.78,3.31-4.74,2.63-9,.43-.11.88-.21,1.31-.35l.44-.14c.74-.25,1.28-.42,1.72-.52a4.61,4.61,0,0,1-.34.82l0,.1c-1.05,2-2.05,3.93-3.16,5.69l-.31.47a10.56,10.56,0,0,0-1.93,4.24,10.35,10.35,0,0,0,1.67,6.46,5.82,5.82,0,0,0,5,2.91c2.48,0,4.29-1.6,5.49-2.67l.44-.39A49.25,49.25,0,0,0,73.66,185l1.51-1.92c.49-.6,1-1.16,1.43-1.68-.23.46-.47.93-.7,1.41-.33.66-.66,1.24-1,1.81a15.1,15.1,0,0,0-1.3,2.69c-1.14,3.51.75,7.22,2.29,8.86a7.84,7.84,0,0,0,6,2.28,25.14,25.14,0,0,0,6.37-1.08l.58-.16c6.88-1.79,12.11-4.95,16.74-7.73l.42-.28c.14.13.28.26.44.39a14.17,14.17,0,0,0,4,2.39,13.23,13.23,0,0,0,4.51.7,18.07,18.07,0,0,0,5.82-.94,35.8,35.8,0,0,0,7.88-4.05,10.9,10.9,0,0,0,1.76,2.66,10.77,10.77,0,0,0,8.35,4h.41c6.18,0,10.86-3.36,13.66-5.36,2-1.44,3.92-3,5.78-4.56a9.81,9.81,0,0,0,1.43,6.34,6.11,6.11,0,0,0,5,3h.11c2.2,0,4-1.37,5.38-2.36l.65-.47a73.45,73.45,0,0,0,7-5.24c1.25-1,2.43-2,3.66-2.9a77.27,77.27,0,0,1,6.74-4.48c-1,2.86-2.06,7.66,0,11.81,1.12,2.29,3.71,5,9.63,5A38.1,38.1,0,0,0,210,192.8c.72-.27,1.36-.57,1.91-.83.4-.19,1-.46,1.28-.56.2.11.53.32.77.47a12.61,12.61,0,0,0,2.29,1.24,24.31,24.31,0,0,0,5.58,1.19,22.6,22.6,0,0,0,2.85.18c4.68,0,8.74-1.42,12.32-2.66,1.57-.55,3.05-1.07,4.48-1.43,1-.26,2.44-.49,4-.74l.38-.06c2.14-.33,5.42-.83,7-3.52a7.12,7.12,0,0,0,.29-6.35,7,7,0,0,0-4.45-4.2,7.47,7.47,0,0,0-1.89-.23,14,14,0,0,0-2.5.28l-.75.12c-1,.14-1.85.3-2.7.46l-.91.17A50.76,50.76,0,0,0,232,178.5l-.6.2a18.31,18.31,0,0,0,1.64-2.16,16.56,16.56,0,0,0,2.7-8.84,13.8,13.8,0,0,0-3.35-9,13.5,13.5,0,0,0-13.82-2.65c-5.68,2.36-9.67,6.75-12.56,13.82a18.84,18.84,0,0,0-.65,1.79,11.87,11.87,0,0,0-.24-3.2,9.11,9.11,0,0,0-4.68-6.43,11.11,11.11,0,0,0-5.25-1.29c-3.66,0-6.87,1.69-9,2.81l-.24.13c-1.36.72-3.24,1.73-5.2,2.87a8.75,8.75,0,0,0-8.36-6.12H172a13.07,13.07,0,0,0-5.3,1.79l-1,.5c-1.73.81-3.31,1.71-4.66,2.49a64.2,64.2,0,0,0-8.88,6.44,63.59,63.59,0,0,1-6.82,5.09c-.55.34-1.06.68-1.55,1l-1,.66c.32-.59.66-1.15,1-1.74a19.69,19.69,0,0,0,2.19-4.35,7.84,7.84,0,0,0-1.14-6.91,6.83,6.83,0,0,0-4.95-2.89l.72-.94a39.21,39.21,0,0,0,3-4.86,9.88,9.88,0,0,0,2.22,6.53,5.8,5.8,0,0,0,4.36,2h.38c2.59-.18,4.09-2.18,5-3.38.17-.22.34-.45.45-.57l.33-.36a9,9,0,0,0,2.79-5.13,7.6,7.6,0,0,0-1.87-6,8,8,0,0,0-2-1.62,7.15,7.15,0,0,0,1.05-2.86,44.4,44.4,0,0,0,.29-10.5c0-.42-.07-.84-.12-1.27a30.85,30.85,0,0,1-.2-3.1c0-.23,0-1.18-.09-2.42a24.29,24.29,0,0,0,4.42,3.37,30.54,30.54,0,0,0,2.67,1.94c.42.28.94.63,1.11.76,1.5,1.17,3.51,2.53,5.69,2.66.54,0,1.25.06,2.22.06s2,0,3.09,0l3.08,0c.78,0,1.39,0,1.8,0,.87,0,1.68.13,2.47.21a34.13,34.13,0,0,0,3.64.25l.9,0c.57,0,1.17,0,1.79,0a15.91,15.91,0,0,0,5.83-.76c4.35-1.72,4.31-5.71,4.29-8.35,0-.27,0-.56,0-.86,0-3.76-.1-7.46-.21-11s-.2-6.92-.2-10.32c0-1.14-.06-2.34-.12-3.5s-.12-2.29-.12-3.34h1.14c.35,0,.7,0,1,0l.47,0,1.1,0c0,.37,0,.76.06,1.16.15,1.9.36,3.76.57,5.56a65.75,65.75,0,0,1,.65,10.7v.28c-.16,3.42-.18,6.21,1,8.36a13.62,13.62,0,0,0,2.15,2.76c.23.25.47.5.69.76.62.72,1.21,1.36,1.78,2a35.93,35.93,0,0,1,2.9,3.42l.25.34A9.92,9.92,0,0,0,216.4,138a11.6,11.6,0,0,0,4.63.76h1.71c2,0,3.81-.06,5.57-.13s3.17-.12,4.76-.12l1.29,0,1.11,0h.07a12.19,12.19,0,0,0,.26,1.25l.18.65a18,18,0,0,0,.83,2.64,15.76,15.76,0,0,0,3.28,4.58c.18.21.37.41.56.62.45.49.92,1.09,1.42,1.72s1.15,1.44,1.79,2.17a17,17,0,0,0,1.36,1.34c.21.19.42.38.63.59s.28.29.41.42a8.39,8.39,0,0,0,2.52,2.05,9.77,9.77,0,0,0,4.18.8l.87,0c2.2.16,4.47.24,6.73.24,3,0,6-.14,9.11-.42.27,0,.58,0,.9,0,2.08-.08,5.57-.21,7.27-3.31a7.66,7.66,0,0,0,.69-4.36c0-.2,0-.39,0-.6-.05-1.32-.06-2.62,0-3.91.3.39.61.73.91,1s.53.59.71.84l.56.78c.48.69,1,1.4,1.62,2.16.19.22.39.48.61.74a22.8,22.8,0,0,0,4.89,4.87,9.46,9.46,0,0,0,4.7,1.15l.68,0,.82.05c.8.06,1.63.11,2.41.13l2.53.07c1.42,0,2.76.08,4.12.08a41.21,41.21,0,0,0,6.61-.46l.66-.1c2.23-.32,5-.72,6.76-2.6,2.81-3,1.27-7.56.53-9.74-1.68-5-3.18-10-4.63-14.86-1.09-3.64-2.22-7.4-3.43-11.21,0-.13-.09-.28-.15-.44l1,0,.83,0a15.89,15.89,0,0,0,2.2,4.86c.28.46.55.9.74,1.28,1.28,2.52,3.33,5.85,5.94,7.56a10.54,10.54,0,0,0,5.85,1.31c.7,0,1.37,0,2,0h.47c.6,0,1.23,0,1.85,0,1.31,0,2.67,0,4-.16s2.49-.19,3.57-.19c.43,0,.87,0,1.29,0l.86,0c.65,0,1.27,0,1.81-.06s.9-.05,1.28-.05l.46,0c.14.17.3.41.43.59a11.15,11.15,0,0,0,1.21,1.55c.57.59,1.1,1.07,1.57,1.49a13.22,13.22,0,0,1,1.24,1.2c.49.58,1,1.15,1.56,1.71s.88.92,1.29,1.38l.55.66a9.7,9.7,0,0,0,3.92,3.27,12.63,12.63,0,0,0,4.76.72c.65,0,1.32,0,2,0s1.14,0,1.69,0c1.2,0,2.33-.05,3.42-.1.94,0,1.83-.07,2.63-.07H370c.77,0,1.57.06,2.41.13s2,.15,3,.15l1,0c3.35-.17,7-.25,10.92-.25,4.56,0,9.28.11,14,.33.52,0,1.05.06,1.59.1,1.06.08,2.15.16,3.29.16a17.14,17.14,0,0,0,2.09-.11,6.49,6.49,0,0,0,5.85-5.6,20.48,20.48,0,0,0,0-5.64c-.05-.51-.09-1-.12-1.49-.14-2.13-.11-4.15-.07-6.29,0-1.86.07-3.78,0-5.79,0-.87-.1-1.72-.16-2.54-.1-1.2-.18-2.32-.16-3.29,0-.27,0-.57.06-.91a14.68,14.68,0,0,0,.1-2.11c-.08-2-.31-3.82-.54-5.58-.14-1.13-.28-2.19-.38-3.29-.17-1.94-.21-4-.24-6s-.08-4.1-.25-6.14c-.17-1.87-.33-3.85-.41-5.73-.09-2.47-.29-4.89-1.79-7.21a14.07,14.07,0,0,0-2.38-2.72,9.83,9.83,0,0,1-.86-.87c-.29-.34-.56-.69-.82-1a21.77,21.77,0,0,0-3.09-3.4,4.75,4.75,0,0,0,1.25-.8c1.91-1.73,2-4.35,1.93-8.46,0-.45,0-.85,0-1.15.07-3.32-.1-6.38-.27-9.33-.07-1.3-.14-2.64-.2-4,0,.07.07.15.11.22a6.75,6.75,0,0,0,2.65,2.65,7.14,7.14,0,0,0,7,0,6.59,6.59,0,0,0,2.65-2.66,7.06,7.06,0,0,0,0-7Zm-9.74,51.82c.33,3.89.14,8.1.5,12.16.26,3,.78,5.64.9,8.68,0,.95-.14,1.8-.16,2.78,0,1.89.24,4,.33,6.08.17,4.13-.19,7.94.08,12.16.23,3.48,1.28,8.15-2.14,8.51a15.44,15.44,0,0,1-1.67.08c-1.56,0-3.15-.18-4.7-.26-4.5-.2-9.37-.33-14.21-.33-3.77,0-7.54.08-11.12.25l-.78,0c-1.77,0-3.53-.27-5.41-.28h-.14c-1.85,0-3.91.17-6.05.17-1.17,0-2.47.08-3.68.08a9.08,9.08,0,0,1-3.25-.43c-1.3-.53-2-1.77-3-2.86s-2-2.09-2.81-3-1.91-1.77-3-2.87-1.62-2.81-3.22-3.21a7.34,7.34,0,0,0-1.77-.18c-1,0-2,.11-3.09.11l-.67,0-1.48,0c-1.38,0-2.69.09-4,.21-1.78.17-3.75.11-5.62.17-.75,0-1.57.06-2.36.06a7.23,7.23,0,0,1-3.66-.66c-1.82-1.19-3.52-4-4.55-6-.83-1.68-2.11-3.1-2.64-5.31a4.56,4.56,0,0,0-.9-2.34c-.84-.75-2.57-.67-4.7-.78-.38,0-.93,0-1.51,0-1.33,0-2.89.16-3.2,1-.43,1.15.54,3.52.91,4.69,2.82,8.86,5.11,17.25,8.08,26.13.55,1.64,1.5,4.49.33,5.73-.9,1-3.32,1.2-5.11,1.48a38,38,0,0,1-6,.41c-2.08,0-4.22-.1-6.56-.15-.95,0-2.06-.11-3.05-.17-1.52-.1-2.66-.06-3.56-.61-1.48-.91-3.3-3.31-4.53-4.78-.74-.88-1.32-1.78-2-2.69s-1.62-1.71-2.06-2.52-.73-2.22-1.32-3.38c-1-2.05-1.88-4.4-2.9-6.51-.23-.49-1-2.7-1.86-2.7h0c-1.09.08-.77,3.21-.66,5.13.27,4.85-.23,9.44,0,14.49a6,6,0,0,1-.17,2.87c-.77,1.4-3.35,1.15-5,1.3q-4.33.41-8.74.41c-2.14,0-4.29-.07-6.45-.23a10.76,10.76,0,0,1-3.55-.43,8.57,8.57,0,0,1-1.9-1.74c-.63-.62-1.29-1.16-1.81-1.74-1.14-1.29-2.17-2.74-3.22-3.9a16.1,16.1,0,0,1-3.14-4.09,24.64,24.64,0,0,1-.83-2.78c-.4-1.5-.2-3.26-1.48-3.81a7,7,0,0,0-2.71-.39c-.79,0-1.62,0-2.4,0-3.4,0-6.59.25-10.33.25l-1.71,0a7.78,7.78,0,0,1-3.07-.45,7.25,7.25,0,0,1-2.64-2.69c-1.53-2.12-3.18-3.69-4.88-5.64a19.2,19.2,0,0,1-2.38-2.88c-.77-1.38-.6-4.36-.5-6.51.26-5.76-.8-11.11-1.23-16.76-.13-1.58.09-3.69-.83-4.42a5.12,5.12,0,0,0-2.61-.43c-.9,0-1.8,0-2.34.08h-2.14c-2,0-3.64.17-3.81,2.16-.23,2.68.17,6,.17,8.68,0,7,.41,14,.41,21.36,0,3,.26,4.69-1.73,5.48-1.68.66-4,.41-6.36.52l-.71,0c-1.92,0-3.66-.34-5.89-.46-.54,0-1.24,0-2,0-1.91,0-4.32.07-6.17.07-.79,0-1.47,0-2,0-1.18-.07-2.75-1.25-3.5-1.83s-3.24-2.14-3.83-2.77a20.21,20.21,0,0,1-4.29-3.29,6.94,6.94,0,0,1-1.42-1.84c-.61-1.2-.23-6.88-.36-9.26-.07-1.35-.21-2.63-.25-4-.2-7.19-1.12-14.62-1.18-22.26-.07-8.87-.13-16.23-.25-24.64,0-.29,0-.48,0-.56-.15-3.94-.11-8.89-.33-12.67-.11-2.07-.4-5.32-.49-8.26-.12-3.61.25-6.07,2.64-6.86a9.62,9.62,0,0,1,2.95-.39c2.15,0,4.53.42,6.7.49.77,0,1.66,0,2.6,0,3.55,0,7.72-.13,7.72-.13s10.83.72,18.14.72c.76,0,1.49,0,2.16,0,3.34-.08,6.67-.25,10.08-.35s6.7-.43,10.15-.43H228c1.1,0,2.32,0,3.52,0,2.36,0,4.66.16,5.88,1.08,1.38,1,2.31,2.69,3.72,3.91,2.08,1.8,4.16,3.45,4.37,7.3.11,1.9-.32,4.38,1,5.21a6.29,6.29,0,0,0,2.8.4c1,0,2.12,0,3,0,4.22,0,7.9.15,11.88.34,1.86.09,3.63.42,5.54.53s3.77.13,5.69.13,3.89,0,5.95-.13c1.15-.06,2.66-.11,4.37-.11H287c1,0,2.31.2,3.43.2a2.87,2.87,0,0,0,2.19-.63c.42-.52.36-2.36.4-3.22.14-3.08-1.33-7.45,1.16-8.94a6.51,6.51,0,0,1,3.24-.65c1.85,0,3.94.33,5.59.4,8,.28,15.66.85,23.69.85,1.66,0,3.34,0,5-.08h.65c1.81,0,3.76.21,5.63.36.91.07,2.33.24,3.62.24s2.58-.19,2.9-.84c.43-.91.1-2.86-.08-4.17-.31-2.1-.46-4.58.41-5.91s3.05-1.89,4.62-2.09a10.41,10.41,0,0,1,1.17-.05c1.29,0,2.86.14,4.19.14,3.56,0,13.94.17,15.69.17,3.56,0,7.21-.14,10.72-.17h.08c1.54,0,3.15.27,4.75.27h.38c.88,0,1.84-.06,2.76-.06a12.75,12.75,0,0,1,2.84.24c1.81.41,3.67,2.9,5,4.17.76.73,1.38,1.36,2.15,2.16s1.9,1.67,2.22,2.78c.46,1.55.26,4.54.33,6.78.16,4.59.59,8.86.49,13.71,0,1.63.28,5.93-.57,6.7a5.35,5.35,0,0,1-2.87.47c-.9,0-1.83,0-2.58,0-3.87,0-7.68.09-11.55.09h-1.21c-1.68,0-3.93.06-4.4.7-.82,1.06-.09,3.38.57,3.73a5.41,5.41,0,0,0,2.34.39c1.27,0,2.63-.18,3.44-.22.4,0,.8,0,1.19,0,1.55,0,3,.1,4.3.1h.37c1.29,0,2.61-.15,3.85-.15a10.94,10.94,0,0,1,1.93.15c3.45.66,4.86,3.15,6.85,5.56.93,1.14,2.08,1.83,3,3.22s1.08,3,1.16,5.2C408,86.57,408.2,88.6,408.37,90.56Zm-253.2,64.87c-.15,1.27-1.22,2.26-2.15,3.3s-1.68,2.54-2.72,2.61h-.1c-1.72,0-2.81-2.91-2.54-5.12.24-1.95,2.36-4.62,3.88-4.87a2.07,2.07,0,0,1,.35,0A3.64,3.64,0,0,1,155.17,155.43Zm-12.71-7.11a26.71,26.71,0,0,1-2.07,6,36.88,36.88,0,0,1-3,4.94c-2.24,3.05-5,5.39-7.76,8.08a66.39,66.39,0,0,1-8.59,7.21c-2.22,1.53-4.51,3.24-6.93,4.86-.91.61-1.83,1.37-1.73,2.18s.87.94,1.77.94a10,10,0,0,0,2.36-.34c4.4-1.15,7.37-3.54,10.56-5.82a68.8,68.8,0,0,0,9.08-7.38c.65-.66,1.75-2.34,3-2.43h.2c2.1,0,3.52,2.58,2.85,4.61-.58,1.82-1.87,3.44-3,5.48a24.77,24.77,0,0,0-1.31,2.86c-.54,1.41-1.53,3.92,0,4.52a2.5,2.5,0,0,0,.86.14,12.22,12.22,0,0,0,4.5-1.36c1.67-.85,2.83-1.81,4.13-2.61,5.72-3.52,9.56-8,15.6-11.46,1.29-.75,2.78-1.6,4.37-2.34s3.31-1.84,4.79-1.91h.25a4.93,4.93,0,0,1,4.78,4.18c.27,1.27-.12,3.23,1.07,3.47a1.36,1.36,0,0,0,.29,0,5.1,5.1,0,0,0,2.35-1c2.18-1.32,4.63-2.69,6.94-3.9,1.92-1,4.56-2.48,7.35-2.48a7.13,7.13,0,0,1,3.38.82,5.18,5.18,0,0,1,2.64,3.74c.83,3.86-1.58,6.9-2.89,9.64-.44.91-2,3.44-1.4,4.94.22.58.95.77,1.86.77a22,22,0,0,0,4.49-.77c1-.23,2.11-.55,3.14-.86s2.75-.76,3-2c.28-1.59-.71-3.15-.66-5a11.19,11.19,0,0,1,1-4.59c2.16-5.27,5.19-9.48,10.39-11.65a8.41,8.41,0,0,1,3.14-.55c2.35,0,4.87.77,6.2,2.21a9.94,9.94,0,0,1,2.3,6.34,12.64,12.64,0,0,1-2.06,6.6c-1.53,2.37-4,4.4-6.35,6.42-.73.63-1.9,1.58-1.82,2.43s1.23,1.23,2.59,1.23a16.52,16.52,0,0,0,3.84-.54c4.84-1.2,7.51-2.7,12.64-3.64,1.09-.2,2.23-.43,3.46-.61a20.69,20.69,0,0,1,2.7-.36,3.41,3.41,0,0,1,.85.1c1.49.4,2.71,3,1.73,4.69-.56,1-2.46,1.31-4.13,1.56s-3.4.54-4.7.87c-5,1.29-9.91,4-15.8,4a18.9,18.9,0,0,1-2.35-.15,20.64,20.64,0,0,1-4.63-1c-1.46-.57-2.65-1.93-4.29-2h-.15c-1.54,0-3,1-4.64,1.66a34.09,34.09,0,0,1-10.55,2.23c-2.68,0-5-.69-6-2.76-1.6-3.27-.31-7.52.83-10.42.39-1,.67-2,1.15-3,.36-.78,1.7-2.42.92-3.39a1.05,1.05,0,0,0-.86-.35c-1.13,0-2.81,1-3.53,1.39a85.59,85.59,0,0,0-11.21,7c-3.43,2.55-6.53,5.49-10.41,8-1,.65-2.69,2.18-3.85,2.18h0c-1.81,0-3.16-3.72-2.32-5.65.44-1,1.22-1.46,2.15-2.43a14.52,14.52,0,0,0,1.73-2.78c.52-.87,1.25-1.88,1.82-2.77.46-.73,1.71-2.51,1.15-3.3a.84.84,0,0,0-.73-.36,5.08,5.08,0,0,0-2.15.88c-6.06,3.48-10.86,8.46-16.26,12.33-2.87,2-6.57,4.61-11.33,4.61h-.31a6.82,6.82,0,0,1-5.45-2.7,6.49,6.49,0,0,1-1.49-2.69c-.32-1.14,0-3.06-.73-3.39a.93.93,0,0,0-.4-.09c-.92,0-2.08,1.19-2.58,1.57a34.12,34.12,0,0,1-8.75,4.86,14.07,14.07,0,0,1-4.51.72,9.56,9.56,0,0,1-3.16-.46,10.88,10.88,0,0,1-2.81-1.74c-.68-.55-1.54-2-2.48-2.08h0c-.94,0-2.16,1.2-2.92,1.66-5,3-9.6,5.7-15.68,7.29a25.33,25.33,0,0,1-5.94,1.11,4,4,0,0,1-3-1c-.86-.91-2-3.19-1.41-4.86.33-1,1.18-2.2,2.07-4,1.33-2.71,2.63-5.08,4.2-7.73.66-1.09,2.36-3.37,1.41-4.6a1.14,1.14,0,0,0-.95-.37,8.69,8.69,0,0,0-3.1,1,27.4,27.4,0,0,0-9,7.72c-2.49,3.09-4.68,6.26-7.84,9-1,.85-2.2,2.11-3.35,2.11a1.93,1.93,0,0,1-1.61-1.07,6.38,6.38,0,0,1-1.06-3.74,9.77,9.77,0,0,1,1.65-3.13c1.22-1.93,2.26-3.93,3.38-6.08,1.27-2.44,1.91-6.52-1.74-6.77H61a14,14,0,0,0-4.33,1c-1.29.42-4.19.68-4.46,2.26a6.47,6.47,0,0,0,.42,2.44c.48,2.77-.83,4.61-2,6.25a24.12,24.12,0,0,1-5.45,5.56c-3.53,2.52-7.68,5.36-13.25,5.36a16.78,16.78,0,0,1-2.85-.24q-5-.83-6.92-4.08c-1.41-2.37-1.54-6.08-.58-9.3a16.08,16.08,0,0,1,4.37-6.68c1.6-1.55,4.07-3.68,7.19-3.73h.06c1.88,0,4.87,1.25,4.47,3.65-.25,1.48-2,1.39-3.8,2a13.15,13.15,0,0,0-6.35,5.29c-1.32,1.9-2.92,5.35,0,6.7a6.68,6.68,0,0,0,2.77.51,14,14,0,0,0,4.17-.69,22.28,22.28,0,0,0,5.44-2.78,24.67,24.67,0,0,0,6.52-5.9c.63-.84,1.7-2,1.16-3.13s-2.15-.6-3.06-1.56c-.55-.59-2.24-3.27-1.49-4.6.59-1,4.21-1.27,5.38-1.57,1.48-.38,4.08-1.05,5.43-1.48a40.11,40.11,0,0,1,5.29-1.64,9.65,9.65,0,0,1,1.75-.16,7.64,7.64,0,0,1,7.08,4.15c.61,1.27.81,4.19,2.07,4.35h.14c1.08,0,2.2-1.37,3-2a30.27,30.27,0,0,1,6.51-4,9,9,0,0,1,4-1,6.45,6.45,0,0,1,3.21.84c3.29,1.87,4.16,5.82,2.89,10.25a32,32,0,0,1-3.46,7.21c-.42.69-1.33,2.07-.66,2.87a1.22,1.22,0,0,0,1,.34,6.61,6.61,0,0,0,2-.43c5.58-2,9.71-4.89,14.53-7.73,1.26-.74,2.27-1.11,2.72-2.51.61-1.85.62-3.77,1.16-5.48a35.39,35.39,0,0,1,2-4.52,63.16,63.16,0,0,1,15.36-20.32c.65-.57,1.44-.95,1.4-2s-1.15-1.78-1.65-2.35c-1.56-1.75-2-2.77-3.55-4.34a7.72,7.72,0,0,1-2-2.43c-1.18-3.18-.92-7.19-1.32-11.12-.21-2-.33-3.93-.42-5.81a32.5,32.5,0,0,0-.5-5.73,3,3,0,0,0-.9-1.57,3.66,3.66,0,0,0-1.89-.41c-1.28,0-2.7.38-3.06,1.11-.45.91-.17,2.39-.17,3.9,0,3.78.12,8.44.09,12.07,0,4.08.33,8,.33,12.34,0,2.24.18,4.53-1.08,5.38a6.39,6.39,0,0,1-3.23.55c-.76,0-1.53,0-2.22,0-2.22,0-3.72-.29-5.53-.43-4-.31-8.23-.08-11.22-.43a12.26,12.26,0,0,1-4.71-1.31,15.13,15.13,0,0,1-3-3.13,31.26,31.26,0,0,0-3-3,8.11,8.11,0,0,1-1.41-1.65c-.38-.57-.78-1.41-1.32-1.65a5.43,5.43,0,0,0-2.08-.29c-.75,0-1.58.05-2.39.05h-.64l-.77,0c-1.58,0-3,.19-4.35.19-7.12,0-13.46-.17-21-.17-2.29,0-4.59.23-6.73.23a16.43,16.43,0,0,1-3.51-.32,7.66,7.66,0,0,1-4.13-3.13c-1.09-1.39-2.15-2.79-3.3-4-2.45-2.57-4.69-5.27-5-9.54-.19-2.52,0-5-.08-7.39C19.68,103,18.91,96,18.57,89c-.23-4.9-.44-9.72-.73-14.16s-.59-9.25-.59-14.24c0-6.8-.27-14.38-.74-21.36-.16-2.45-.7-6.63.83-7.47.84-.47,3-.38,4.54-.44,5.2-.19,10.29-.6,15.29-.6,1.23,0,2.46,0,3.69.08.81,0,1.6.06,2.4.06s1.58,0,2.39-.06h.55c1.31,0,2.74.19,4.14.19h.09l1.9,0a8.19,8.19,0,0,1,3.55.55c1.76.89,2.72,2.52,4,4.08s2.82,2.21,3.88,4.17a12.91,12.91,0,0,1,1,7c-.61,7.91,0,14.82.42,23.7.16,3.92.25,7.75.57,11.81.12,1.39-.11,3.54.5,4.17A2.4,2.4,0,0,0,68,87c1.1,0,2.31-.4,2.61-1,.76-1.58.33-5.19.33-8.07,0-4.68-.13-9.85-.33-14.16-.13-2.86-.53-5.91,1.08-7.12a6.2,6.2,0,0,1,3.54-.74c1.51,0,3.16.17,4.46.22l1.81,0c2.19,0,4.13-.13,6.06-.13h.71c.94,0,1.87,0,2.81,0,3.43,0,6.8-.1,10.18-.1,1.47,0,3,0,4.43.07,3.26.14,6.35.19,9.36.19,5.49,0,10.75-.18,16.48-.44.83,0,1.69-.07,2.55-.07,2,0,4,.18,5.2.94a22.74,22.74,0,0,1,2.47,2.26A84.34,84.34,0,0,1,148,65.28l.34.32c.84.85,1.26,3.87,1.45,6.37.36,4.94.52,10.28.91,14.78.58,6.82.79,15,.9,22.69.06,3.86.16,7.51.19,11,.28,5.76.46,9.7.46,10,0,1.79.22,3.26.33,4.69a40.18,40.18,0,0,1-.25,9.55c-.37,2.36-2.22,2.43-4.77,2.43h-.5c-1,0-2-.18-2.75-.18A1.64,1.64,0,0,0,142.46,148.32ZM41,175.77a9.3,9.3,0,0,0,.61.74,7,7,0,0,0,.71.64A22.78,22.78,0,0,1,37.67,181a18.44,18.44,0,0,1-4.48,2.32,10,10,0,0,1-2.93.49h0a9.22,9.22,0,0,1,.55-.92c1.47-2.09,2.82-3.27,4.37-3.8.28-.09.63-.17,1-.26C37.32,178.56,39.77,178,41,175.77Zm172.36,15.62h0Zm-8.16-12.15c-1.13.35-2,.6-2.79.78l-.12,0,.47-.85a24.64,24.64,0,0,0,2.06-4.51c0,.4-.05.81-.06,1.25A12.57,12.57,0,0,0,205.18,179.24ZM416.77,45a5.12,5.12,0,0,1-2,2.05,5.56,5.56,0,0,1-5.51,0,5.18,5.18,0,0,1-2-2.05,5.55,5.55,0,0,1-.73-2.75,5.67,5.67,0,0,1,.74-2.77,5.13,5.13,0,0,1,2.08-2.05,5.57,5.57,0,0,1,5.44,0,5.17,5.17,0,0,1,2.07,2.05,5.55,5.55,0,0,1,0,5.52Z"
		transform="translate(-12.29 -24.59)"
	></path>
	<path
		style="fill: hsl(0, 0%, 100%)"
		d="M414.23,38.24a4.58,4.58,0,0,0-4.53,0A4.31,4.31,0,0,0,408,40a4.63,4.63,0,0,0,0,4.61,4.3,4.3,0,0,0,1.71,1.7,4.56,4.56,0,0,0,4.59,0,4.24,4.24,0,0,0,1.71-1.7,4.63,4.63,0,0,0,.61-2.3A4.71,4.71,0,0,0,416,40,4.25,4.25,0,0,0,414.23,38.24Zm-.86,7.08-.53-.94a4.74,4.74,0,0,0-1-1.38,1.2,1.2,0,0,0-.77-.21h-.56v2.53h-1v-6h2a5,5,0,0,1,1.51.16,1.45,1.45,0,0,1,.75.58,1.48,1.48,0,0,1,.28.87,1.59,1.59,0,0,1-.47,1.14,1.85,1.85,0,0,1-1.23.54,1.44,1.44,0,0,1,.5.32,6,6,0,0,1,.88,1.18l.73,1.16ZM414.93,43Z"
		transform="translate(-12.29 -24.59)"
	></path>
	<path
		style="fill: hsl(0, 0%, 100%)"
		d="M413.11,41.06a.8.8,0,0,0-.15-.47.84.84,0,0,0-.4-.31,3,3,0,0,0-1-.11H410.5V42h1.17a1.88,1.88,0,0,0,1.14-.25A.8.8,0,0,0,413.11,41.06Z" transform="translate(-12.29 -24.59)"></path>
	<path
		style="fill: hsl(0, 0%, 100%)"
		d="M263.8,175.65a5.68,5.68,0,0,0-1.86.32c-4.05,1.43-6.56,5.41-6.56,10.38v.75l.27.7a5.65,5.65,0,0,0,5.32,3.85,9.09,9.09,0,0,0,5.16-2,9.25,9.25,0,0,0,3.59-4.1,8,8,0,0,0-1-7.13A6,6,0,0,0,263.8,175.65Zm-2.83,12c-.65,0-1.22-.35-1.59-1.3,0-3.46,1.65-5.82,3.88-6.6a1.51,1.51,0,0,1,.54-.1c1.68,0,2.83,2.75,2.19,4.44a5.61,5.61,0,0,1-2.15,2.26A5.86,5.86,0,0,1,261,187.65Z"
		transform="translate(-12.29 -24.59)"
	></path>
	<path
		style="fill: hsl(0, 0%, 100%)"
		d="M410.59,176.65a6.29,6.29,0,0,0-.85-.06,10.16,10.16,0,0,0-3.42.71l-.66.22c-1.42.34-2.9.58-4.47.82h0c.18-.38.36-.74.54-1.1a36,36,0,0,0,1.72-3.82c.09-.24.21-.5.32-.77a10,10,0,0,0,1.09-4.56c-.12-3-3-7.63-6.23-8.59a7.53,7.53,0,0,0-2.17-.31,15.54,15.54,0,0,0-5.67,1.38,41.34,41.34,0,0,0-7.88,4.3l-.08-.24c-.75-2-3.06-5.36-6.39-6.29a8.06,8.06,0,0,0-2.14-.29,11.7,11.7,0,0,0-5.29,1.55l-.29.15c-2.47,1.2-4.61,2.37-7.34,4a11.13,11.13,0,0,0-9.89-5.85h-.21a43.78,43.78,0,0,0-9.17,1.24c-.72.17-1.45.38-2.15.59a15.33,15.33,0,0,1-3.9.84,2.9,2.9,0,0,1-.43,0l-.58-.21a9.25,9.25,0,0,0-3.36-.77h-.18a9.39,9.39,0,0,0-5,1.41,9,9,0,0,0-3.31,4.29,7.16,7.16,0,0,0-5.12-3.43l-.57,0c-2.43,0-4.67,1.48-6.55,2.92a20.66,20.66,0,0,0-3.52,3.6l-.27.34a18.6,18.6,0,0,1-2.13,2l-.67.56a49.09,49.09,0,0,1-14.89,8.68,15,15,0,0,1-3.88,1.05c-.21,0-.43,0-.65,0l-.74,0a6.29,6.29,0,0,1,.37-1.33,14.16,14.16,0,0,1,4.35-5.44,11.14,11.14,0,0,1,1.07-.82,6.16,6.16,0,0,0,3.48,1.09,4.7,4.7,0,0,0,.52,0c3.57-.27,6.36-3.83,6.06-7.76a9.33,9.33,0,0,0-5.19-7.15,10.07,10.07,0,0,0-4.22-.86,12.89,12.89,0,0,0-6.37,1.67,29.2,29.2,0,0,0-8.57,8.26c-3.11,4.43-4.72,8.78-4.77,12.92-.1,8.15,4.59,11.29,8.54,12.48a19,19,0,0,0,5.5.78,29.49,29.49,0,0,0,12-2.89A83.86,83.86,0,0,0,306,187a7.84,7.84,0,0,0,1,1.36,14.23,14.23,0,0,0,5.1,3.34,15.92,15.92,0,0,0,5.75,1c6.21,0,11.68-3.3,14.39-5.27,5.08-3.7,8.15-7.43,9.39-11.42a11.38,11.38,0,0,0,.36-1.73l.08,0c.4-.08.79-.17,1.15-.27s.83-.24,1.29-.38c.7-.22,1.58-.49,2.12-.59l.67-.13.86-.18c-.12.21-.26.42-.39.63a38.05,38.05,0,0,0-2,3.43l-.27.49a8,8,0,0,0-1.17,5.58,7.25,7.25,0,0,0,6.8,5.88h.35c2.34-.13,3.91-1.83,5-2.95l.35-.38a92.39,92.39,0,0,1,7.51-6.74c1.08-.85,2.3-1.72,3.61-2.57-.21.46-.44.93-.66,1.44l-.11.23a11,11,0,0,0-1.31,5.53c.3,3.1,3.08,6.41,6.75,6.41h.13a7.21,7.21,0,0,0,4.86-2.57l.38-.37,2.46-2.28c2.19-2.05,4.22-3.94,6.38-5.65a12.12,12.12,0,0,0,.51,8.68,12.56,12.56,0,0,0,6.32,5.8,9.24,9.24,0,0,0,3,.46,19.83,19.83,0,0,0,4.08-.53l.67-.13.16,0c1.26-.25,2.57-.5,4.08-.9.51-.14,1.14-.27,1.8-.41,2.68-.58,5.45-1.18,7.26-3a6.94,6.94,0,0,0,2.18-5.34A7.46,7.46,0,0,0,410.59,176.65ZM411.9,186c-1.31,1.3-4.92,1.73-7.27,2.35-1.44.38-2.71.62-4,.87a22.08,22.08,0,0,1-4,.59,5.42,5.42,0,0,1-1.68-.24,8.66,8.66,0,0,1-4-3.82c-1.54-3,.1-7.1,1.06-9.39.32-.75.69-1.64,1.16-2.51.61-1.13,1.08-2,.75-2.61a1,1,0,0,0-.9-.5,5.78,5.78,0,0,0-2.33.85c-6.14,3.26-10.28,7.61-15.34,12.24-.76.69-1.7,1.88-2.65,1.92h0a3.18,3.18,0,0,1-2.76-2.79,8.28,8.28,0,0,1,1.07-3.74c1-2.31,1.92-3.93,3-6.51.43-1.09,1.18-2.82.48-3.55a1,1,0,0,0-.81-.3,7.1,7.1,0,0,0-2.73,1,56.08,56.08,0,0,0-9,5.74,92.76,92.76,0,0,0-7.84,7c-.72.71-1.79,2.11-2.73,2.16h-.11a3.29,3.29,0,0,1-2.85-2.52c-.27-1.68.5-2.49,1.07-3.65,1-2.08,2.26-3.66,3.47-5.91.48-.9,1.28-2.42.82-3.47-.27-.64-1.22-.85-2.37-.85a30.73,30.73,0,0,0-5.39.77c-1.16.21-2.71.76-3.71,1-1.22.33-2.86.48-3.47,1.22s-.59,2.44-.91,3.47c-1.2,3.86-4.69,7-7.92,9.37-3,2.16-7.44,4.51-12,4.51a12,12,0,0,1-4.31-.77,10.42,10.42,0,0,1-3.63-2.35c-.91-1-1.61-3.49-3-3.65h-.16c-1,0-2.07,1.09-2.81,1.57a77.39,77.39,0,0,1-8.76,4.69,25.48,25.48,0,0,1-10.34,2.52,15,15,0,0,1-4.34-.61c-3.66-1.1-5.76-3.62-5.71-8.59.06-4.17,2.22-8.07,4.06-10.69a25.26,25.26,0,0,1,7.34-7.12,8.86,8.86,0,0,1,4.32-1.1,6,6,0,0,1,2.53.49A5.31,5.31,0,0,1,296,167c.14,1.81-1.07,3.37-2.4,3.48h-.19c-1.35,0-1.71-1.19-3-1.3h-.22c-1.5,0-3.13,1.34-3.91,2a18.16,18.16,0,0,0-5.45,6.95c-.55,1.34-1.16,4.15-.41,5.47C281,184.63,283,185,284.9,185l.88,0a18,18,0,0,0,5-1.3,53.16,53.16,0,0,0,16.09-9.38,26.09,26.09,0,0,0,3.3-3,19.35,19.35,0,0,1,3.14-3.3c1.08-.83,2.81-2.09,4.11-2.09h.19c1.35.13,3,2.13,2.8,4-.15,1.65-2.1,2.61-3.3,3.48a15.07,15.07,0,0,0-3.56,3.12c-.8,1.23-2,4.34-.49,5.55a3.77,3.77,0,0,0,2.31.57,22.09,22.09,0,0,0,4.22-.57,17.08,17.08,0,0,0,5.44-2.16,22.77,22.77,0,0,0,4.62-3c1-.93,3.51-3,3.3-4.34-.16-1.11-2.35-1-3.38-1.31-1.2-.37-2.81-1.1-3-2.69a5,5,0,0,1,2-4.09,5.48,5.48,0,0,1,2.86-.77h.11c1.27,0,2.34.8,3.47,1a7.77,7.77,0,0,0,1,.06c2.41,0,5-1.07,7-1.53a39.89,39.89,0,0,1,8.33-1.14h.15a7.1,7.1,0,0,1,6.46,3.92c.56,1,.75,2.65,1.65,2.95a1.62,1.62,0,0,0,.44.07c1.11,0,2.49-1.11,3.36-1.63a79.34,79.34,0,0,1,7.1-3.91,8.9,8.9,0,0,1,3.8-1.28,4.06,4.06,0,0,1,1.07.15c1.65.46,3.2,2.45,3.71,3.82s.37,4.32,1.24,4.69a1.06,1.06,0,0,0,.43.08c1.19,0,2.81-1.54,3.61-2.08a40.25,40.25,0,0,1,7.93-4.43,12.12,12.12,0,0,1,4.17-1.09,3.4,3.4,0,0,1,1,.14c1.3.39,3.32,3.22,3.38,4.95.06,1.21-.65,2.42-1.15,3.73-1,2.76-1.89,3.79-3.05,6.68-.38,1-1.29,2.88-.83,3.74.22.39.78.51,1.43.51a12.33,12.33,0,0,0,2.12-.25c2.45-.44,4.87-.72,7.26-1.3a13.72,13.72,0,0,1,3.13-.81l.34,0a3.52,3.52,0,0,1,2.81,3A2.94,2.94,0,0,1,411.9,186ZM324,172.12a7.75,7.75,0,0,0,2.61,2.1,18.76,18.76,0,0,1-2.85,1.79l-.6.34a13.35,13.35,0,0,1-4.26,1.73h-.06c-.46.1-1,.21-1.63.31a19,19,0,0,1,2.29-1.8l.6-.41A9.85,9.85,0,0,0,324,172.12Z"
		transform="translate(-12.29 -24.59)"
	></path>
	<path
		style="fill: hsl(0, 0%, 100%)"
		d="M232.74,98.55c-.38-5.25-.23-9.58-.25-14.42,0-1.52-.32-3-.33-4.6,0-3-.1-6.34,0-9.55s-.23-6.44-.08-9.82c.19-4.78-.06-9.38-.33-14.15-.09-1.51-.28-3.6-.83-4.08a3.13,3.13,0,0,0-1.92-.39c-.64,0-1.35,0-2,0h-.13c-1.5,0-2.92-.17-4.16-.17h-8.76c-2.74,0-5.64.49-8.41.52h-.61c-1.84,0-3.69-.07-5.5-.07-.89,0-1.77,0-2.64.07-1.34.09-2.67.12-4,.12-6.29,0-12.34-.8-18.67-.8-1,0-2,0-3,.07l-1,0c-1.83,0-3.82-.2-5.59-.2a12.22,12.22,0,0,0-2.34.18c-1.9.37-1.73,2-1.41,4.34a48.43,48.43,0,0,1,.58,7.57c0,1.42.25,2.74.25,3.81,0,2.43,0,4.88,0,7.29.09,7.53-.08,14.64-.08,22.5,0,6.54.39,12.25.66,18.41.05,1.14.3,2.24.41,3.39.19,2-.16,6,.58,7.11.61.91,2.15.92,3.8,1.05.82.06,1.62.08,2.39.08,1.79,0,3.46-.12,5.13-.12.46,0,.92,0,1.38,0s1.11.06,1.68.06a3.69,3.69,0,0,0,2.45-.58c.65-.65.59-2.53.59-4.17,0-8.18.45-15.64-.09-23.28-.24-3.24-.68-6.84,1.15-7.81a3.33,3.33,0,0,1,1.52-.29c.62,0,1.3.08,2,.12,1.33.06,2.64.13,3.71.26a59.69,59.69,0,0,0,6.82.37c2.74,0,5.52-.16,8.37-.37,1-.08,2.21-.19,3.36-.19,1.51,0,2.91.2,3.49,1s.6,2.43.83,4c1,6.77.64,15,1.4,21.8.15,1.38.28,2.75.41,4.17s.19,3.18.67,4,2.44,1.33,4,1.47c2.6.24,4.6.27,7,.27H228c.67,0,1.56,0,2.41,0a4.73,4.73,0,0,0,2.46-.38c.5-.49.41-2.94.41-4.44C233.31,107.86,233,102.71,232.74,98.55Zm-27.4-32.83c-.64.67-2,.87-3.47,1s-2.91.3-4.05.34l-1.15,0c-1.54,0-3.27-.07-4.94-.07-.74,0-1.47,0-2.16,0-1.11.06-2.33.2-3.46.2-1.59,0-3-.28-3.64-1.51s-.68-4.3-.57-6.51c.12-2.75,0-4.51,2.3-4.86a7.25,7.25,0,0,1,1.17-.08,43.06,43.06,0,0,1,4.44.43c1.75.19,3.59.16,5.7.25,1.11.06,2.53.22,4.18.22.46,0,.94,0,1.43,0s.79,0,1.18,0c1.5,0,2.85.24,3.37,1.25a10.19,10.19,0,0,1,.49,3C206.35,61.89,206.21,64.8,205.34,65.72Z"
		transform="translate(-12.29 -24.59)"
	></path>
	<path
		style="fill: hsl(0, 0%, 100%)"
		d="M215.17,178.79l.14,0c.87,0,2.23-1.18,3-1.75,1.05-.78,1.82-1.62,2.64-2.26a31.38,31.38,0,0,0,5.21-4.6c.56-.69,1.66-2,1.47-3.39s-1.64-1.65-3-1.65a7.06,7.06,0,0,0-1.07.08,10.65,10.65,0,0,0-5.53,3.4,18.21,18.21,0,0,0-2.8,3.82C214.81,173.35,213.24,178.47,215.17,178.79Z"
		transform="translate(-12.29 -24.59)"
	></path>
	<path
		style="fill: hsl(0, 0%, 100%)"
		d="M296.66,60.27h-1.61c-.43,0-.87,0-1.32,0-2-.11-4.53-.18-6.27-.27-1.43-.07-2.83-.09-4.21-.09-3.15,0-6.18.12-9.17.12-1.85,0-3.69-.05-5.53-.2s-3.92-.43-5.81-.43h-1.31c-2.92,0-6-.17-8.94-.17-1,0-1.91,0-2.84.07h-.5c-.63,0-1.36-.05-2.08-.05-1.22,0-2.4.13-2.95.82-.77,1-.58,4.11-.49,6.34.09,2.4-.08,4.65-.08,7,0,4.41.41,9.62.41,13.73,0,2.17-.16,4.46,0,6.86.14,2.17.25,4.59.25,6.85,0,2.51.24,4.45.41,6.61.09,1.24,0,2.42,0,3.55s.26,2.16.33,3.22c.32,5.15.58,10.65.58,16.15,0,1.93-.05,4.26.66,5s2.35.49,3.62.61,2.43.17,4.06.17c1.15,0,2.56.12,3.86.12,1.62,0,3.06-.18,3.56-1s.15-2.55.08-3.83c-.24-4.41-.31-8.24-.49-12.42-.11-2.36-.3-5.27-.33-8.24,0-2.17-.06-6.62,1.07-7.47a4.9,4.9,0,0,1,2.6-.47c.66,0,1.3,0,1.78,0,.69,0,1.58-.05,2.4-.05a6.8,6.8,0,0,1,2.06.22c1.68.63,1.75,2.58,2.47,4.25.52,1.21,1.19,2.35,1.73,3.56s1.12,2.39,1.65,3.65c.92,2.16,2.18,4.58,3.14,7.47s2.19,4.87,3.22,7.38c.89,2.18,2,6.14,3.54,7.12a9,9,0,0,0,3,.7c.88.15,1.82.23,3.06.34a35.49,35.49,0,0,0,3.58.31c1.09,0,2-.16,2.37-.74.46-.83,0-2.16-.42-3.56-.3-1.13-.65-2.25-.9-3.21a71.3,71.3,0,0,0-3.3-8.94c-.42-1-.64-2.1-1-3.13-.77-2.15-1.79-4.09-2.4-5.83-.31-.86-.44-1.77-.74-2.6-.93-2.54-2.34-4.89-3.23-7.21-.35-.92-1.51-3.69-.81-4.95.39-.72,2.22-.72,3.45-.78h.55c1.26,0,2.69.15,3.51.18,1.74.08,3.88.36,5.52.36h.5c2.22-.09,2.27-1.65,2.31-4.25.14-9.22-.12-17.67.16-26.31a16.53,16.53,0,0,0,0-4.34C300.83,60.46,299,60.27,296.66,60.27Zm-16.05,24.3c-.81.71-2.6.86-4.13,1a39.79,39.79,0,0,1-4.7.43h-.07c-.81,0-1.72-.16-2.41-.17h-.07c-1.25,0-2.51.1-3.64.1-1.79,0-3.26-.24-3.89-1.49-.49-1-.36-2.57-.49-4.16-.1-1.24-.15-3.67.24-4.26.56-.83,2.34-1.1,3.56-1.22q.93-.09,2-.09c1.81,0,3.86.17,5.94.27h.56c1.16,0,2.62-.13,3.93-.13a4.87,4.87,0,0,1,3,.64c.69.63,1,2.93,1.07,4C281.67,81.33,281.5,83.78,280.61,84.57Z"
		transform="translate(-12.29 -24.59)"
	></path>
	<path
		style="fill: hsl(0, 0%, 100%)"
		d="M396.65,102.11c0-2-.06-4-.17-5.73s-.55-3.44-.74-5.12-.2-3.6-.33-5.56c-.21-3.22-.13-7-2.14-8.16a6.34,6.34,0,0,0-2.67-.39c-1.06,0-2.21.08-3.11.12-2.84.15-5.56.21-8.23.21-1.11,0-2.22,0-3.32,0h-.45l-1.85,0A8.42,8.42,0,0,1,370.4,77c-2.11-.94-2.16-4.45-2.22-7.47,0-2,0-4.53-.17-6.43-.11-1.63-.68-4.53-.09-6.08.69-1.77,3-2,5.36-2,1.12,0,2.25.06,3.23.06h.57c.59,0,1.15,0,1.68,0,1.57,0,2.94.06,4.37.06.56,0,1.13,0,1.72,0h1a2.25,2.25,0,0,0,1.39-.35c.7-.57.74-2.29.82-4,.15-3.33.2-6.44.08-9.81,0-1.41-.11-3.51-.66-4.25-.82-1.12-4-1.14-6.43-1.14h-1c-1.94,0-4.41-.12-6.28-.12-.59,0-1.12,0-1.56,0-1.63.11-12.24.17-16.18.17h-.11c-1.81,0-3.94,0-4.6.95-.78,1.16-.29,5.38.5,5.91s2,.2,2.73.52a4.87,4.87,0,0,1,2.64,3.13c.42,1.81,0,4.67,0,6.95,0,4.77.41,9,.57,13.64,0,1-.09,2.17-.07,3.46s.22,2.59-.09,3.3c-.8,1.85-3.78.68-5,2-.75.86-.56,4-.49,5.74.07,1.56-.11,4.73.42,5.9.7,1.58,3,1.74,5.29,1.74h1.81c3.52,0,7.25.27,10.64.27,1,0,2.11-.1,3.12-.1a7.09,7.09,0,0,1,2.17.27c2.83.93,2.23,4.42,2.3,8.33,0,2.21.48,3.94.42,5.83-.12,4-2.38,4.74-6,4.74-.6,0-1.23,0-1.89,0-2.36-.12-4.7-.24-7-.24-.92,0-1.84,0-2.77.07-1.72.07-3.81-.12-4.7.42-1.85,1.12-.94,8.07-1.08,11.3-.06,1.44-.33,2.74.09,3.64.55,1.21,2.2,1.42,4.29,1.48,5.61.17,10.18.78,15.77.78,3.71,0,7.84.17,11.92.17,1.46,0,2.9,0,4.33-.08s4.22,0,5-.52.57-3.8.57-5.64c0-2.14-.06-4.37,0-5.74C397,109,396.65,106.13,396.65,102.11Z"
		transform="translate(-12.29 -24.59)"
	></path>
	<path
		style="fill: hsl(0, 0%, 100%)"
		d="M357,101.78c2.07,0,4.22-.1,5.82-.1,1.16,0,3.07.24,4.78.24,1.94,0,3.62-.31,3.64-1.63,0-1.63-1.59-1.59-3.64-1.66-4.51-.12-8.89-.17-13.1-.17h-1.44c-.48,0-1,0-1.47,0a3.22,3.22,0,0,0-.58,0,1.54,1.54,0,0,0-1.4,1.66c.11,1.82,4,1.59,5.95,1.64C356,101.78,356.5,101.78,357,101.78Z"
		transform="translate(-12.29 -24.59)"
	></path>
	<path
		style="fill: hsl(0, 0%, 100%)"
		d="M136.65,146.22h-.38a10.73,10.73,0,0,0-4.21,1.74,25.75,25.75,0,0,0-3.38,2.69,62,62,0,0,0-13.87,16.59c-.68,1.21-1.91,2.72-1.32,4.34a2.28,2.28,0,0,0,.57.07c1.35,0,2.45-1.14,3.48-1.81a74.27,74.27,0,0,0,10.15-8.51c3.19-3,6.17-5.89,8.58-10.08C136.91,150.16,139.7,146.22,136.65,146.22Z"
		transform="translate(-12.29 -24.59)"
	></path>
	<path
		style="fill: hsl(0, 0%, 100%)"
		d="M351.09,62.69c-.21-3.51-.27-5.82-.5-9-.09-1.39-.11-3.43-.66-4.07s-3.09-.93-4.62-1c-2-.15-3.85-.09-5.53-.17-3.34-.17-5.93-.48-9-.48-.6,0-1.22,0-1.88,0-.5,0-1,0-1.54,0-3,0-6.13-.32-9.27-.38-2.75,0-5.88-.25-8.67-.25-.89,0-1.75,0-2.55.08l-.68,0c-.68,0-1.6,0-2.52,0-1.67,0-3.37.1-3.82.7a9.34,9.34,0,0,0-.16,5c.35.62,1.16.7,2.06.7h1a6.21,6.21,0,0,1,1.25.1c2.85.61,3.25,2.76,3.55,6.16.12,1.37-.05,3.52.74,4.25.49.46,1.8.52,3.13.52h1.49c.3,0,.58,0,.83,0,2.09.1,4.21-.09,5,1.13.6,1,.33,4,.33,5.47,0,2,.14,4.09.16,5.73,0,3.88-.12,7.63.08,11.38.19,3.45-.26,7.59-.41,11.11-.08,1.76.07,3.7.17,5.73s-.39,4.42.07,5.64c.78,2,5,1.71,7.6,1.83l4.37.18c.73,0,1.57.11,2.33.11a3.52,3.52,0,0,0,1.89-.38c.92-.62,1-3.22.9-5.12-.14-2.36-.4-4-.41-5.73-.05-4.22-.33-7.77-.33-11.9,0-4.47-.42-8.06-.49-11.72,0-1.71-.21-3.81-.33-5.82-.15-2.23-.08-4,1.23-4.69a7.57,7.57,0,0,1,3.06-.42c1.55,0,3.33.14,4.7.25,1.13.09,2.46.21,3.69.21,1.56,0,2.94-.2,3.49-.91S351.17,64,351.09,62.69Z"
		transform="translate(-12.29 -24.59)"
	></path>
	<path
		style="fill: hsl(0, 0%, 0.43%)"
		d="M280.44,75.54a4.87,4.87,0,0,0-3-.64c-1.31,0-2.77.13-3.93.13h-.56c-2.08-.1-4.13-.27-5.94-.27q-1,0-2,.09c-1.22.12-3,.39-3.56,1.22-.39.59-.34,3-.24,4.26.13,1.59,0,3.19.49,4.16.63,1.25,2.1,1.49,3.89,1.49,1.13,0,2.39-.1,3.64-.1h.07c.69,0,1.6.17,2.41.17h.07a39.79,39.79,0,0,0,4.7-.43c1.53-.18,3.32-.33,4.13-1s1.06-3.24.9-5C281.42,78.47,281.13,76.17,280.44,75.54Z"
		transform="translate(-12.29 -24.59)"
	></path>
	<path
		style="fill: hsl(0, 0%, 0.43%)"
		d="M205.67,56.34c-.52-1-1.87-1.25-3.37-1.25-.39,0-.78,0-1.18,0s-1,0-1.43,0c-1.65,0-3.07-.16-4.18-.22-2.11-.09-3.95-.06-5.7-.25a43.06,43.06,0,0,0-4.44-.43,7.25,7.25,0,0,0-1.17.08c-2.27.35-2.18,2.11-2.3,4.86-.11,2.21-.09,5.28.57,6.51s2.05,1.51,3.64,1.51c1.13,0,2.35-.14,3.46-.2.69,0,1.42,0,2.16,0,1.67,0,3.4.07,4.94.07l1.15,0c1.14,0,2.58-.26,4.05-.34s2.83-.3,3.47-1c.87-.92,1-3.83.82-6.42A10.19,10.19,0,0,0,205.67,56.34Z"
		transform="translate(-12.29 -24.59)"
	></path>
	<path
		style="fill: hsl(0, 0%, 0.43%)"
		d="M151.54,151.35c-1.52.25-3.64,2.92-3.88,4.87-.27,2.21.82,5.12,2.54,5.12h.1c1-.07,1.92-1.7,2.72-2.61s2-2,2.15-3.3a3.64,3.64,0,0,0-3.28-4.11A2.07,2.07,0,0,0,151.54,151.35Z" transform="translate(-12.29 -24.59)"></path>
	<path
		style="fill: hsl(0, 0%, 0.43%)"
		d="M152.36,144.75a40.18,40.18,0,0,0,.25-9.55c-.11-1.43-.33-2.9-.33-4.69,0-.35-.18-4.29-.46-10,0-3.51-.13-7.16-.19-11-.11-7.69-.32-15.87-.9-22.69-.39-4.5-.55-9.84-.91-14.78-.19-2.5-.61-5.52-1.45-6.37l-.34-.32a84.34,84.34,0,0,0-6.32-6.41,22.74,22.74,0,0,0-2.47-2.26c-1.21-.76-3.17-.94-5.2-.94-.86,0-1.72,0-2.55.07-5.73.26-11,.44-16.48.44-3,0-6.1,0-9.36-.19-1.48-.05-3-.07-4.43-.07-3.38,0-6.75.1-10.18.1-.94,0-1.87,0-2.81,0h-.71c-1.93,0-3.87.13-6.06.13l-1.81,0c-1.3-.05-3-.22-4.46-.22a6.2,6.2,0,0,0-3.54.74c-1.61,1.21-1.21,4.26-1.08,7.12.2,4.31.33,9.48.33,14.16,0,2.88.43,6.49-.33,8.07-.3.64-1.51,1-2.61,1a2.4,2.4,0,0,1-1.68-.52c-.61-.63-.38-2.78-.5-4.17-.32-4.06-.41-7.89-.57-11.81-.37-8.88-1-15.79-.42-23.7a12.91,12.91,0,0,0-1-7c-1.06-2-2.53-2.57-3.88-4.17s-2.28-3.19-4-4.08A8.19,8.19,0,0,0,52.33,31l-1.9,0h-.09c-1.4,0-2.83-.19-4.14-.19h-.55c-.81,0-1.6.06-2.39.06s-1.59,0-2.4-.06c-1.23-.06-2.46-.08-3.69-.08-5,0-10.09.41-15.29.6-1.58.06-3.7,0-4.54.44-1.53.84-1,5-.83,7.47.47,7,.74,14.56.74,21.36,0,5,.29,9.78.59,14.24s.5,9.26.73,14.16c.34,7,1.11,14,1.41,20.84.1,2.42-.11,4.87.08,7.39.34,4.27,2.58,7,5,9.54,1.15,1.21,2.21,2.61,3.3,4a7.66,7.66,0,0,0,4.13,3.13,16.43,16.43,0,0,0,3.51.32c2.14,0,4.44-.23,6.73-.23,7.5,0,13.84.17,21,.17,1.37,0,2.77-.19,4.35-.19l.77,0h.64c.81,0,1.64-.05,2.39-.05a5.43,5.43,0,0,1,2.08.29c.54.24.94,1.08,1.32,1.65a8.11,8.11,0,0,0,1.41,1.65,31.26,31.26,0,0,1,3,3,15.13,15.13,0,0,0,3,3.13A12.26,12.26,0,0,0,87.41,145c3,.35,7.23.12,11.22.43,1.81.14,3.31.43,5.53.43.69,0,1.46,0,2.22,0a6.39,6.39,0,0,0,3.23-.55c1.26-.85,1.08-3.14,1.08-5.38,0-4.37-.38-8.26-.33-12.34,0-3.63-.09-8.29-.09-12.07,0-1.51-.28-3,.17-3.9.36-.73,1.78-1.11,3.06-1.11a3.66,3.66,0,0,1,1.89.41,3,3,0,0,1,.9,1.57,32.5,32.5,0,0,1,.5,5.73c.09,1.88.21,3.86.42,5.81.4,3.93.14,7.94,1.32,11.12a7.72,7.72,0,0,0,2,2.43c1.5,1.57,2,2.59,3.55,4.34.5.57,1.61,1.39,1.65,2.35s-.75,1.42-1.4,2A63.16,63.16,0,0,0,109,166.63a35.39,35.39,0,0,0-2,4.52c-.54,1.71-.55,3.63-1.16,5.48-.45,1.4-1.46,1.77-2.72,2.51-4.82,2.84-9,5.74-14.53,7.73a6.61,6.61,0,0,1-2,.43,1.22,1.22,0,0,1-1-.34c-.67-.8.24-2.18.66-2.87a32,32,0,0,0,3.46-7.21c1.27-4.43.4-8.38-2.89-10.25a6.45,6.45,0,0,0-3.21-.84,9,9,0,0,0-4,1,30.27,30.27,0,0,0-6.51,4c-.8.64-1.92,2-3,2H70c-1.26-.16-1.46-3.08-2.07-4.35a7.64,7.64,0,0,0-7.08-4.15,9.65,9.65,0,0,0-1.75.16,40.11,40.11,0,0,0-5.29,1.64c-1.35.43-4,1.1-5.43,1.48-1.17.3-4.79.54-5.38,1.57-.75,1.33.94,4,1.49,4.6.91,1,2.55.59,3.06,1.56s-.53,2.29-1.16,3.13a24.67,24.67,0,0,1-6.52,5.9,22.28,22.28,0,0,1-5.44,2.78,14,14,0,0,1-4.17.69,6.68,6.68,0,0,1-2.77-.51c-2.92-1.35-1.32-4.8,0-6.7a13.15,13.15,0,0,1,6.35-5.29c1.77-.6,3.55-.51,3.8-2,.4-2.4-2.59-3.65-4.47-3.65h-.06c-3.12,0-5.59,2.18-7.19,3.73a16.08,16.08,0,0,0-4.37,6.68c-1,3.22-.83,6.93.58,9.3q1.94,3.26,6.92,4.08a16.78,16.78,0,0,0,2.85.24c5.57,0,9.72-2.84,13.25-5.36a24.12,24.12,0,0,0,5.45-5.56c1.15-1.64,2.46-3.48,2-6.25a6.47,6.47,0,0,1-.42-2.44c.27-1.58,3.17-1.84,4.46-2.26a14,14,0,0,1,4.33-1h.54c3.65.25,3,4.33,1.74,6.77-1.12,2.15-2.16,4.15-3.38,6.08a9.77,9.77,0,0,0-1.65,3.13,6.38,6.38,0,0,0,1.06,3.74,1.93,1.93,0,0,0,1.61,1.07c1.15,0,2.34-1.26,3.35-2.11,3.16-2.7,5.35-5.87,7.84-9a27.4,27.4,0,0,1,9-7.72,8.69,8.69,0,0,1,3.1-1,1.14,1.14,0,0,1,.95.37c1,1.23-.75,3.51-1.41,4.6-1.57,2.65-2.87,5-4.2,7.73-.89,1.8-1.74,3-2.07,4-.54,1.67.55,3.95,1.41,4.86a4,4,0,0,0,3,1,25.33,25.33,0,0,0,5.94-1.11c6.08-1.59,10.73-4.3,15.68-7.29.76-.46,2-1.66,2.92-1.66h0c.94.05,1.8,1.53,2.48,2.08a10.88,10.88,0,0,0,2.81,1.74,9.56,9.56,0,0,0,3.16.46,14.07,14.07,0,0,0,4.51-.72,34.12,34.12,0,0,0,8.75-4.86c.5-.38,1.66-1.57,2.58-1.57a.93.93,0,0,1,.4.09c.7.33.41,2.25.73,3.39a6.49,6.49,0,0,0,1.49,2.69,6.82,6.82,0,0,0,5.45,2.7h.31c4.76,0,8.46-2.56,11.33-4.61,5.4-3.87,10.2-8.85,16.26-12.33a5.08,5.08,0,0,1,2.15-.88.84.84,0,0,1,.73.36c.56.79-.69,2.57-1.15,3.3-.57.89-1.3,1.9-1.82,2.77a14.52,14.52,0,0,1-1.73,2.78c-.93,1-1.71,1.43-2.15,2.43-.84,1.93.51,5.61,2.32,5.65h0c1.16,0,2.85-1.53,3.85-2.18,3.88-2.5,7-5.44,10.41-8a85.59,85.59,0,0,1,11.21-7c.72-.37,2.4-1.39,3.53-1.39a1.05,1.05,0,0,1,.86.35c.78,1-.56,2.61-.92,3.39-.48,1.07-.76,2.06-1.15,3-1.14,2.9-2.43,7.15-.83,10.42,1,2.07,3.36,2.76,6,2.76a34.09,34.09,0,0,0,10.55-2.23c1.66-.62,3.1-1.66,4.64-1.66h.15c1.64.07,2.83,1.43,4.29,2a20.64,20.64,0,0,0,4.63,1,18.9,18.9,0,0,0,2.35.15c5.89,0,10.82-2.68,15.8-4,1.3-.33,2.94-.58,4.7-.87s3.57-.58,4.13-1.56c1-1.68-.24-4.29-1.73-4.69a3.41,3.41,0,0,0-.85-.1,20.69,20.69,0,0,0-2.7.36c-1.23.18-2.37.41-3.46.61-5.13.94-7.8,2.44-12.64,3.64a16.52,16.52,0,0,1-3.84.54c-1.36,0-2.49-.3-2.59-1.23s1.09-1.8,1.82-2.43c2.3-2,4.82-4,6.35-6.42a12.64,12.64,0,0,0,2.06-6.6,9.94,9.94,0,0,0-2.3-6.34c-1.33-1.44-3.85-2.21-6.2-2.21a8.41,8.41,0,0,0-3.14.55c-5.2,2.17-8.23,6.38-10.39,11.65a11.19,11.19,0,0,0-1,4.59c-.05,1.89.94,3.45.66,5-.22,1.24-1.81,1.64-3,2s-2.13.63-3.14.86a22,22,0,0,1-4.49.77c-.91,0-1.64-.19-1.86-.77-.6-1.5,1-4,1.4-4.94,1.31-2.74,3.72-5.78,2.89-9.64a5.18,5.18,0,0,0-2.64-3.74,7.13,7.13,0,0,0-3.38-.82c-2.79,0-5.43,1.46-7.35,2.48-2.31,1.21-4.76,2.58-6.94,3.9a5.1,5.1,0,0,1-2.35,1,1.36,1.36,0,0,1-.29,0c-1.19-.24-.8-2.2-1.07-3.47a4.93,4.93,0,0,0-4.78-4.18h-.25c-1.48.07-3.23,1.17-4.79,1.91s-3.08,1.59-4.37,2.34c-6,3.48-9.88,7.94-15.6,11.46-1.3.8-2.46,1.76-4.13,2.61a12.22,12.22,0,0,1-4.5,1.36,2.5,2.5,0,0,1-.86-.14c-1.53-.6-.54-3.11,0-4.52a24.77,24.77,0,0,1,1.31-2.86c1.1-2,2.39-3.66,3-5.48.67-2-.75-4.61-2.85-4.61h-.2c-1.22.09-2.32,1.77-3,2.43a68.8,68.8,0,0,1-9.08,7.38c-3.19,2.28-6.16,4.67-10.56,5.82a10,10,0,0,1-2.36.34c-.9,0-1.68-.22-1.77-.94s.82-1.57,1.73-2.18c2.42-1.62,4.71-3.33,6.93-4.86a66.39,66.39,0,0,0,8.59-7.21c2.77-2.69,5.52-5,7.76-8.08a36.88,36.88,0,0,0,3-4.94,26.71,26.71,0,0,0,2.07-6,1.64,1.64,0,0,1,1.88-1.32c.78,0,1.74.18,2.75.18h.5C150.14,147.18,152,147.11,152.36,144.75Zm62.9,27.71a18.21,18.21,0,0,1,2.8-3.82,10.65,10.65,0,0,1,5.53-3.4,7.06,7.06,0,0,1,1.07-.08c1.33,0,2.81.37,3,1.65s-.91,2.7-1.47,3.39a31.38,31.38,0,0,1-5.21,4.6c-.82.64-1.59,1.48-2.64,2.26-.77.57-2.13,1.75-3,1.75l-.14,0C213.24,178.47,214.81,173.35,215.26,172.46Zm-79-21.2c-2.41,4.19-5.39,7.06-8.58,10.08a74.27,74.27,0,0,1-10.15,8.51c-1,.67-2.13,1.81-3.48,1.81a2.28,2.28,0,0,1-.57-.07c-.59-1.62.64-3.13,1.32-4.34a62,62,0,0,1,13.87-16.59,25.75,25.75,0,0,1,3.38-2.69,10.73,10.73,0,0,1,4.21-1.74h.38C139.7,146.22,136.91,150.16,136.27,151.26Z"
		transform="translate(-12.29 -24.59)"
	></path>
	<path
		style="fill: hsl(0, 0%, 0.43%)" d="M263.8,179.65a1.51,1.51,0,0,0-.54.1c-2.23.78-3.88,3.14-3.88,6.6.37,1,.94,1.3,1.59,1.3a5.86,5.86,0,0,0,2.87-1.3,5.61,5.61,0,0,0,2.15-2.26C266.63,182.4,265.48,179.65,263.8,179.65Z" transform="translate(-12.29 -24.59)"></path>
	<path
		style="fill: hsl(0, 0%, 0.43%)"
		d="M410.08,180.61l-.34,0a13.72,13.72,0,0,0-3.13.81c-2.39.58-4.81.86-7.26,1.3a12.33,12.33,0,0,1-2.12.25c-.65,0-1.21-.12-1.43-.51-.46-.86.45-2.78.83-3.74,1.16-2.89,2-3.92,3.05-6.68.5-1.31,1.21-2.52,1.15-3.73-.06-1.73-2.08-4.56-3.38-4.95a3.4,3.4,0,0,0-1-.14,12.12,12.12,0,0,0-4.17,1.09,40.25,40.25,0,0,0-7.93,4.43c-.8.54-2.42,2.08-3.61,2.08a1.06,1.06,0,0,1-.43-.08c-.87-.37-.75-3.35-1.24-4.69s-2.06-3.36-3.71-3.82a4.06,4.06,0,0,0-1.07-.15,8.9,8.9,0,0,0-3.8,1.28,79.34,79.34,0,0,0-7.1,3.91c-.87.52-2.25,1.63-3.36,1.63a1.62,1.62,0,0,1-.44-.07c-.9-.3-1.09-1.92-1.65-2.95a7.1,7.1,0,0,0-6.46-3.92h-.15a39.89,39.89,0,0,0-8.33,1.14c-2,.46-4.54,1.53-7,1.53a7.77,7.77,0,0,1-1-.06c-1.13-.15-2.2-.93-3.47-1h-.11a5.48,5.48,0,0,0-2.86.77,5,5,0,0,0-2,4.09c.16,1.59,1.77,2.32,3,2.69,1,.32,3.22.2,3.38,1.31.21,1.31-2.3,3.41-3.3,4.34a22.77,22.77,0,0,1-4.62,3,17.08,17.08,0,0,1-5.44,2.16,22.09,22.09,0,0,1-4.22.57,3.77,3.77,0,0,1-2.31-.57c-1.52-1.21-.31-4.32.49-5.55a15.07,15.07,0,0,1,3.56-3.12c1.2-.87,3.15-1.83,3.3-3.48.17-1.86-1.45-3.86-2.8-4h-.19c-1.3,0-3,1.26-4.11,2.09a19.35,19.35,0,0,0-3.14,3.3,26.09,26.09,0,0,1-3.3,3,53.16,53.16,0,0,1-16.09,9.38,18,18,0,0,1-5,1.3l-.88,0c-1.89,0-3.89-.35-4.48-1.41-.75-1.32-.14-4.13.41-5.47a18.16,18.16,0,0,1,5.45-6.95c.78-.66,2.41-2,3.91-2h.22c1.31.11,1.67,1.3,3,1.3h.19c1.33-.11,2.54-1.67,2.4-3.48a5.31,5.31,0,0,0-2.89-3.82,6,6,0,0,0-2.53-.49,8.86,8.86,0,0,0-4.32,1.1,25.26,25.26,0,0,0-7.34,7.12c-1.84,2.62-4,6.52-4.06,10.69-.05,5,2.05,7.49,5.71,8.59a15,15,0,0,0,4.34.61,25.48,25.48,0,0,0,10.34-2.52,77.39,77.39,0,0,0,8.76-4.69c.74-.48,1.77-1.57,2.81-1.57H307c1.35.16,2.05,2.68,3,3.65a10.42,10.42,0,0,0,3.63,2.35,12,12,0,0,0,4.31.77c4.6,0,9.08-2.35,12-4.51,3.23-2.35,6.72-5.51,7.92-9.37.32-1,.27-2.71.91-3.47s2.25-.89,3.47-1.22c1-.28,2.55-.83,3.71-1a30.73,30.73,0,0,1,5.39-.77c1.15,0,2.1.21,2.37.85.46,1-.34,2.57-.82,3.47-1.21,2.25-2.43,3.83-3.47,5.91-.57,1.16-1.34,2-1.07,3.65a3.29,3.29,0,0,0,2.85,2.52h.11c.94-.05,2-1.45,2.73-2.16a92.76,92.76,0,0,1,7.84-7,56.08,56.08,0,0,1,9-5.74,7.1,7.1,0,0,1,2.73-1,1,1,0,0,1,.81.3c.7.73-.05,2.46-.48,3.55-1.06,2.58-1.94,4.2-3,6.51a8.28,8.28,0,0,0-1.07,3.74,3.18,3.18,0,0,0,2.76,2.79h0c.95,0,1.89-1.23,2.65-1.92,5.06-4.63,9.2-9,15.34-12.24a5.78,5.78,0,0,1,2.33-.85,1,1,0,0,1,.9.5c.33.62-.14,1.48-.75,2.61-.47.87-.84,1.76-1.16,2.51-1,2.29-2.6,6.35-1.06,9.39a8.66,8.66,0,0,0,4,3.82,5.42,5.42,0,0,0,1.68.24,22.08,22.08,0,0,0,4-.59c1.25-.25,2.52-.49,4-.87,2.35-.62,6-1,7.27-2.35a2.94,2.94,0,0,0,1-2.34A3.52,3.52,0,0,0,410.08,180.61Z"
		transform="translate(-12.29 -24.59)"
	></path>
	<path
		style="fill: hsl(0, 0%, 0.43%)"
		d="M402.17,58.77c.1-4.85-.33-9.12-.49-13.71-.07-2.24.13-5.23-.33-6.78-.32-1.11-1.47-2-2.22-2.78s-1.39-1.43-2.15-2.16c-1.29-1.27-3.15-3.76-5-4.17a12.75,12.75,0,0,0-2.84-.24c-.92,0-1.88,0-2.76.06H386c-1.6,0-3.21-.27-4.75-.27h-.08c-3.51,0-7.16.17-10.72.17-1.75,0-12.13-.17-15.69-.17-1.33,0-2.9-.14-4.19-.14a10.41,10.41,0,0,0-1.17.05c-1.57.2-3.66.63-4.62,2.09s-.72,3.81-.41,5.91c.18,1.31.51,3.26.08,4.17-.32.65-1.54.84-2.9.84s-2.71-.17-3.62-.24c-1.87-.15-3.82-.36-5.63-.36h-.65c-1.69.06-3.37.08-5,.08-8,0-15.71-.57-23.69-.85-1.65-.07-3.74-.4-5.59-.4a6.51,6.51,0,0,0-3.24.65c-2.49,1.49-1,5.86-1.16,8.94,0,.86,0,2.7-.4,3.22a2.87,2.87,0,0,1-2.19.63c-1.12,0-2.42-.19-3.43-.2h-1.32c-1.71,0-3.22.05-4.37.11-2.06.09-4,.13-5.95.13s-3.8,0-5.69-.13-3.68-.44-5.54-.53c-4-.19-7.66-.34-11.88-.34-.86,0-2,0-3,0a6.29,6.29,0,0,1-2.8-.4c-1.31-.83-.88-3.31-1-5.21-.21-3.85-2.29-5.5-4.37-7.3-1.41-1.22-2.34-2.87-3.72-3.91-1.22-.92-3.52-1.08-5.88-1.08-1.2,0-2.42,0-3.52,0h-10.4c-3.45,0-6.86.34-10.15.43s-6.74.27-10.08.35c-.67,0-1.4,0-2.16,0-7.31,0-18.14-.72-18.14-.72s-4.17.13-7.72.13c-.94,0-1.83,0-2.6,0-2.17-.07-4.55-.49-6.7-.49a9.62,9.62,0,0,0-2.95.39c-2.39.79-2.76,3.25-2.64,6.86.09,2.94.38,6.19.49,8.26.22,3.78.18,8.73.33,12.67,0,.08,0,.27,0,.56.12,8.41.18,15.77.25,24.64.06,7.64,1,15.07,1.18,22.26,0,1.33.18,2.61.25,4,.13,2.38-.25,8.06.36,9.26a6.94,6.94,0,0,0,1.42,1.84,20.21,20.21,0,0,0,4.29,3.29c.59.63,3.09,2.19,3.83,2.77s2.32,1.76,3.5,1.83c.5,0,1.18,0,2,0,1.85,0,4.26-.07,6.17-.07.78,0,1.48,0,2,0,2.23.12,4,.46,5.89.46l.71,0c2.31-.11,4.68.14,6.36-.52,2-.79,1.73-2.51,1.73-5.48,0-7.31-.41-14.37-.41-21.36,0-2.73-.4-6-.17-8.68.17-2,1.84-2.16,3.81-2.16h2.14c.54,0,1.44-.08,2.34-.08a5.12,5.12,0,0,1,2.61.43c.92.73.7,2.84.83,4.42.43,5.65,1.49,11,1.23,16.76-.1,2.15-.27,5.13.5,6.51a19.2,19.2,0,0,0,2.38,2.88c1.7,2,3.35,3.52,4.88,5.64a7.25,7.25,0,0,0,2.64,2.69,7.78,7.78,0,0,0,3.07.45l1.71,0c3.74,0,6.93-.25,10.33-.25.78,0,1.61,0,2.4,0a7,7,0,0,1,2.71.39c1.28.55,1.08,2.31,1.48,3.81a24.64,24.64,0,0,0,.83,2.78,16.1,16.1,0,0,0,3.14,4.09c1.05,1.16,2.08,2.61,3.22,3.9.52.58,1.18,1.12,1.81,1.74a8.57,8.57,0,0,0,1.9,1.74,10.76,10.76,0,0,0,3.55.43c2.16.16,4.31.23,6.45.23q4.41,0,8.74-.41c1.68-.15,4.26.1,5-1.3a6,6,0,0,0,.17-2.87c-.23-5.05.27-9.64,0-14.49-.11-1.92-.43-5,.66-5.13h0c.87,0,1.63,2.21,1.86,2.7,1,2.11,1.86,4.46,2.9,6.51.59,1.16.82,2.51,1.32,3.38s1.35,1.53,2.06,2.52,1.24,1.81,2,2.69c1.23,1.47,3.05,3.87,4.53,4.78.9.55,2,.51,3.56.61,1,.06,2.1.15,3.05.17,2.34,0,4.48.15,6.56.15a38,38,0,0,0,6-.41c1.79-.28,4.21-.5,5.11-1.48,1.17-1.24.22-4.09-.33-5.73-3-8.88-5.26-17.27-8.08-26.13-.37-1.17-1.34-3.54-.91-4.69.31-.85,1.87-1,3.2-1,.58,0,1.13,0,1.51,0,2.13.11,3.86,0,4.7.78a4.56,4.56,0,0,1,.9,2.34c.53,2.21,1.81,3.63,2.64,5.31,1,2,2.73,4.8,4.55,6a7.23,7.23,0,0,0,3.66.66c.79,0,1.61,0,2.36-.06,1.87-.06,3.84,0,5.62-.17,1.27-.12,2.58-.21,4-.21l1.48,0,.67,0c1.06,0,2.1-.11,3.09-.11a7.34,7.34,0,0,1,1.77.18c1.6.4,2.31,2.26,3.22,3.21s2.12,1.86,3,2.87,1.83,1.93,2.81,3,1.67,2.33,3,2.86a9.08,9.08,0,0,0,3.25.43c1.21,0,2.51-.08,3.68-.08,2.14,0,4.2-.17,6.05-.17H370c1.88,0,3.64.28,5.41.28l.78,0c3.58-.17,7.35-.25,11.12-.25,4.84,0,9.71.13,14.21.33,1.55.08,3.14.26,4.7.26a15.44,15.44,0,0,0,1.67-.08c3.42-.36,2.37-5,2.14-8.51-.27-4.22.09-8-.08-12.16-.09-2.07-.37-4.19-.33-6.08,0-1,.2-1.83.16-2.78-.12-3-.64-5.71-.9-8.68-.36-4.06-.17-8.27-.5-12.16-.17-2-.34-4-.41-5.91-.08-2.15-.25-3.79-1.16-5.2s-2-2.08-3-3.22c-2-2.41-3.4-4.9-6.85-5.56a10.94,10.94,0,0,0-1.93-.15c-1.24,0-2.56.13-3.85.15h-.37c-1.31,0-2.75-.1-4.3-.1-.39,0-.79,0-1.19,0-.81,0-2.17.22-3.44.22a5.41,5.41,0,0,1-2.34-.39c-.66-.35-1.39-2.67-.57-3.73.47-.64,2.72-.7,4.4-.7h1.21c3.87,0,7.68-.09,11.55-.09.75,0,1.68,0,2.58,0a5.35,5.35,0,0,0,2.87-.47C402.45,64.7,402.15,60.4,402.17,58.77Zm-189.08,48.9c-.76-6.8-.39-15-1.4-21.8-.23-1.56-.26-3.25-.83-4s-2-1-3.49-1c-1.15,0-2.36.11-3.36.19-2.85.21-5.63.37-8.37.37a59.69,59.69,0,0,1-6.82-.37c-1.07-.13-2.38-.2-3.71-.26-.65,0-1.33-.12-2-.12a3.33,3.33,0,0,0-1.52.29c-1.83,1-1.39,4.57-1.15,7.81.54,7.64.09,15.1.09,23.28,0,1.64.06,3.52-.59,4.17a3.69,3.69,0,0,1-2.45.58c-.57,0-1.16,0-1.68-.06s-.92,0-1.38,0c-1.67,0-3.34.12-5.13.12-.77,0-1.57,0-2.39-.08-1.65-.13-3.19-.14-3.8-1.05-.74-1.09-.39-5.07-.58-7.11-.11-1.15-.36-2.25-.41-3.39-.27-6.16-.66-11.87-.66-18.41,0-7.86.17-15,.08-22.5,0-2.41,0-4.86,0-7.29,0-1.07-.24-2.39-.25-3.81a48.43,48.43,0,0,0-.58-7.57c-.32-2.36-.49-4,1.41-4.34a12.22,12.22,0,0,1,2.34-.18c1.77,0,3.76.2,5.59.2l1,0c1,0,2-.07,3-.07,6.33,0,12.38.8,18.67.8,1.31,0,2.64,0,4-.12.87-.06,1.75-.07,2.64-.07,1.81,0,3.66.07,5.5.07h.61c2.77,0,5.67-.52,8.41-.52h8.76c1.24,0,2.66.17,4.16.17H227c.69,0,1.4,0,2,0a3.13,3.13,0,0,1,1.92.39c.55.48.74,2.57.83,4.08.27,4.77.52,9.37.33,14.15-.15,3.38.17,6.72.08,9.82s0,6.54,0,9.55c0,1.56.32,3.08.33,4.6,0,4.84-.13,9.17.25,14.42.29,4.16.57,9.31.57,14.24,0,1.5.09,3.95-.41,4.44a4.73,4.73,0,0,1-2.46.38c-.85,0-1.74,0-2.41,0h-2.91c-2.39,0-4.39,0-7-.27-1.52-.14-3.46-.6-4-1.47s-.52-2.45-.67-4S213.24,109.05,213.09,107.67Zm183.72,6.08c-.06,1.37,0,3.6,0,5.74,0,1.84.29,5-.57,5.64s-3.5.45-5,.52-2.87.08-4.33.08c-4.08,0-8.21-.17-11.92-.17-5.59,0-10.16-.61-15.77-.78-2.09-.06-3.74-.27-4.29-1.48-.42-.9-.15-2.2-.09-3.64.14-3.23-.77-10.18,1.08-11.3.89-.54,3-.35,4.7-.42.93,0,1.85-.07,2.77-.07,2.35,0,4.69.12,7,.24.66,0,1.29,0,1.89,0,3.66,0,5.92-.79,6-4.74.06-1.89-.37-3.62-.42-5.83-.07-3.91.53-7.4-2.3-8.33a7.09,7.09,0,0,0-2.17-.27c-1,0-2.09.1-3.12.1-3.39,0-7.12-.27-10.64-.27h-1.81c-2.3,0-4.59-.16-5.29-1.74-.53-1.17-.35-4.34-.42-5.9-.07-1.75-.26-4.88.49-5.74,1.18-1.32,4.16-.15,5-2,.31-.71.1-2,.09-3.3s.11-2.42.07-3.46c-.16-4.65-.57-8.87-.57-13.64,0-2.28.42-5.14,0-6.95A4.87,4.87,0,0,0,354.56,43c-.75-.32-1.91,0-2.73-.52s-1.28-4.75-.5-5.91c.66-.94,2.79-.95,4.6-.95H356c3.94,0,14.55-.06,16.18-.17.44,0,1,0,1.56,0,1.87,0,4.34.11,6.28.12h1c2.41,0,5.61,0,6.43,1.14.55.74.61,2.84.66,4.25.12,3.37.07,6.48-.08,9.81-.08,1.71-.12,3.43-.82,4a2.25,2.25,0,0,1-1.39.35h-1c-.59,0-1.16,0-1.72,0-1.43,0-2.8-.06-4.37-.06-.53,0-1.09,0-1.68,0h-.57c-1,0-2.11-.06-3.23-.06-2.36,0-4.67.28-5.36,2-.59,1.55,0,4.45.09,6.08.14,1.9.13,4.41.17,6.43.06,3,.11,6.53,2.22,7.47a8.42,8.42,0,0,0,3.24.44l1.85,0h.45c1.1,0,2.21,0,3.32,0,2.67,0,5.39-.06,8.23-.21.9,0,2.05-.12,3.11-.12a6.34,6.34,0,0,1,2.67.39c2,1.12,1.93,4.94,2.14,8.16.13,2,.14,3.82.33,5.56s.64,3.37.74,5.12.17,3.73.17,5.73C396.65,106.13,397,109,396.81,113.75ZM312.87,64.84h-1.49c-1.33,0-2.64-.06-3.13-.52-.79-.73-.62-2.88-.74-4.25-.3-3.4-.7-5.55-3.55-6.16a6.21,6.21,0,0,0-1.25-.1h-1c-.9,0-1.71-.08-2.06-.7a9.34,9.34,0,0,1,.16-5c.45-.6,2.15-.7,3.82-.7.92,0,1.84,0,2.52,0l.68,0c.8-.06,1.66-.08,2.55-.08,2.79,0,5.92.21,8.67.25,3.14.06,6.27.38,9.27.38.52,0,1,0,1.54,0,.66,0,1.28,0,1.88,0,3.09,0,5.68.31,9,.48,1.68.08,3.53,0,5.53.17,1.53.12,4,.3,4.62,1s.57,2.68.66,4.07c.23,3.22.29,5.53.5,9,.08,1.33.26,3.49-.33,4.25s-1.93.91-3.49.91c-1.23,0-2.56-.12-3.69-.21-1.37-.11-3.15-.25-4.7-.25a7.57,7.57,0,0,0-3.06.42c-1.31.69-1.38,2.46-1.23,4.69.12,2,.29,4.11.33,5.82.07,3.66.49,7.25.49,11.72,0,4.13.28,7.68.33,11.9,0,1.71.27,3.37.41,5.73.12,1.9,0,4.5-.9,5.12a3.52,3.52,0,0,1-1.89.38c-.76,0-1.6-.08-2.33-.11l-4.37-.18c-2.61-.12-6.82.2-7.6-1.83-.46-1.22,0-3.65-.07-5.64s-.25-4-.17-5.73c.15-3.52.6-7.66.41-11.11-.2-3.75-.05-7.5-.08-11.38,0-1.64-.16-3.7-.16-5.73,0-1.52.27-4.49-.33-5.47-.75-1.22-2.87-1-5-1.13C313.45,64.84,313.17,64.84,312.87,64.84Zm-11.47,2c-.28,8.64,0,17.09-.16,26.31,0,2.6-.09,4.16-2.31,4.25h-.5c-1.64,0-3.78-.28-5.52-.36-.82,0-2.25-.18-3.51-.18h-.55c-1.23.06-3.06.06-3.45.78-.7,1.26.46,4,.81,4.95.89,2.32,2.3,4.67,3.23,7.21.3.83.43,1.74.74,2.6.61,1.74,1.63,3.68,2.4,5.83.35,1,.57,2.1,1,3.13a71.3,71.3,0,0,1,3.3,8.94c.25,1,.6,2.08.9,3.21.38,1.4.88,2.73.42,3.56-.33.58-1.28.74-2.37.74a35.49,35.49,0,0,1-3.58-.31c-1.24-.11-2.18-.19-3.06-.34a9,9,0,0,1-3-.7c-1.53-1-2.65-4.94-3.54-7.12-1-2.51-2.27-4.52-3.22-7.38s-2.22-5.31-3.14-7.47c-.53-1.26-1.1-2.45-1.65-3.65s-1.21-2.35-1.73-3.56c-.72-1.67-.79-3.62-2.47-4.25a6.8,6.8,0,0,0-2.06-.22c-.82,0-1.71.05-2.4.05-.48,0-1.12,0-1.78,0a4.9,4.9,0,0,0-2.6.47c-1.13.85-1.09,5.3-1.07,7.47,0,3,.22,5.88.33,8.24.18,4.18.25,8,.49,12.42.07,1.28.39,3.07-.08,3.83s-1.94,1-3.56,1c-1.3,0-2.71-.12-3.86-.12-1.63,0-2.68-.05-4.06-.17s-3,0-3.62-.61-.66-3-.66-5c0-5.5-.26-11-.58-16.15-.07-1.06-.29-2.12-.33-3.22s.09-2.31,0-3.55c-.17-2.16-.41-4.1-.41-6.61,0-2.26-.11-4.68-.25-6.85-.16-2.4,0-4.69,0-6.86,0-4.11-.41-9.32-.41-13.73,0-2.38.17-4.63.08-7-.09-2.23-.28-5.36.49-6.34.55-.69,1.73-.82,2.95-.82.72,0,1.45.05,2.08.05h.5c.93,0,1.88-.07,2.84-.07,2.95,0,6,.17,8.94.17h1.31c1.89,0,3.83.26,5.81.43s3.68.2,5.53.2c3,0,6-.12,9.17-.12,1.38,0,2.78,0,4.21.09,1.74.09,4.25.16,6.27.27.45,0,.89,0,1.32,0h1.61c2.31,0,4.17.19,4.74,2.25A16.53,16.53,0,0,1,301.4,66.86Zm48.2,33.26a1.54,1.54,0,0,1,1.4-1.66,3.22,3.22,0,0,1,.58,0c.44,0,1,0,1.47,0h1.44c4.21,0,8.59.05,13.1.17,2.05.07,3.66,0,3.64,1.66,0,1.32-1.7,1.63-3.64,1.63-1.71,0-3.62-.24-4.78-.24-1.6,0-3.75.1-5.82.1-.49,0-1,0-1.44,0C353.59,101.71,349.71,101.94,349.6,100.12Z"
		transform="translate(-12.29 -24.59)"
	></path>
	<path
		style="fill: hsl(0, 0%, 0.43%)"
		d="M412,36.73a5.75,5.75,0,0,1,2.72.71,5.17,5.17,0,0,1,2.07,2.05,5.55,5.55,0,0,1,0,5.52,5.12,5.12,0,0,1-2,2.05,5.56,5.56,0,0,1-5.51,0,5.18,5.18,0,0,1-2-2.05,5.55,5.55,0,0,1-.73-2.75,5.67,5.67,0,0,1,.74-2.77,5.13,5.13,0,0,1,2.08-2.05A5.72,5.72,0,0,1,412,36.73Zm0,.91a4.67,4.67,0,0,0-2.27.6A4.31,4.31,0,0,0,408,40a4.63,4.63,0,0,0,0,4.61,4.3,4.3,0,0,0,1.71,1.7,4.56,4.56,0,0,0,4.59,0,4.24,4.24,0,0,0,1.71-1.7,4.63,4.63,0,0,0,.61-2.3A4.71,4.71,0,0,0,416,40a4.25,4.25,0,0,0-1.73-1.71A4.69,4.69,0,0,0,412,37.64Zm-2.43,7.68v-6h2a5,5,0,0,1,1.51.16,1.45,1.45,0,0,1,.75.58,1.48,1.48,0,0,1,.28.87,1.59,1.59,0,0,1-.47,1.14,1.85,1.85,0,0,1-1.23.54,1.44,1.44,0,0,1,.5.32,6,6,0,0,1,.88,1.18l.73,1.16h-1.17l-.53-.94a4.74,4.74,0,0,0-1-1.38,1.2,1.2,0,0,0-.77-.21h-.56v2.53Zm1-3.35h1.17a1.88,1.88,0,0,0,1.14-.25.85.85,0,0,0,.15-1.13.84.84,0,0,0-.4-.31,3,3,0,0,0-1-.11H410.5Z"
		transform="translate(-12.29 -24.59)"
	></path>
	<path
		style="fill: hsl(0, 72.2%, 50.6%)"
		d="M138.83,98.38c.09,4.43.26,8.54.17,12.42-.07,2.61-.22,6-.09,8.94.1,2.35.55,7.54-.83,8.34-.66.38-2.22.26-3.46.26-2.08,0-4.94-.22-7-.35-1.42-.08-2.72.14-3.46-.52-1.08-1-.91-3.86-1-6.42-.16-4.8-.79-9.52-1.08-13.81s.32-8.34-3.38-9.21c-1.51-.36-3.45,0-5.37,0s-3.65-.17-5.53-.17a44,44,0,0,0-5.45-.09c-1.71.19-4.27.12-5,1a5.6,5.6,0,0,0-.66,3c0,1.68.42,4.14.59,6.17.3,3.78.66,8,.66,12.68,0,2.29.2,5-.83,5.82s-4.14.62-6.11.52c-1.59-.08-4.24-.52-6-.52-1.37,0-3.66.44-4.46-.27a3.16,3.16,0,0,1-.17-3.38c.86-.87,2.45,0,3.88-.52,2.1-.82,1.25-4.78,1.16-7.65-.07-2.23-.4-6.28-.5-8.94-.06-1.62,0-3.14-.08-4.69s-.22-3-.25-4.52c-.08-4.09.85-8-1.82-9.12-1-.42-3.81.11-4.78-.69s-.74-3.68-.74-5.47V69.11c0-2-.41-5,.57-5.73.79-.58,4-.36,5.61-.44,2.26-.1,4-.25,5.86-.17,4.15.21,7.74-.27,11.64-.08,8,.38,15.52,0,23.53,0h.16c1.35-.07,3.82-.07,5.78,0,1.46.05,4.32-.36,5.28.25s1.22,3,1.4,5c.37,4,.53,8.34.92,12C138.51,85.51,138.71,92.15,138.83,98.38ZM116.22,85.17c1.26-.78,1.23-3.62,1.06-6-.12-1.83-.74-4.25-2.22-5-1.3-.7-5-.35-6.85-.26-2,.1-4.16.12-6.6.17-2.21,0-4.57.26-5,1.65a20.42,20.42,0,0,0-.08,2.61c-.16,2.16-1.1,5.15.49,6.51,1,.88,3.16.56,5,.52,3.81-.07,6.28.09,10.07.09C113.6,85.44,115.53,85.6,116.22,85.17Z"
		transform="translate(-12.29 -24.59)"
	></path>
	<path
		style="fill: hsl(0, 72.2%, 50.6%)"
		d="M79.16,110c0,1.93.55,4.32-.33,5.3s-4.06.78-6.28.78H65.78c-4.89,0-9-.59-13.12-.78-6.73-.31-12.49-1-19.72-1-2.07,0-5.44.36-6.36-.6-.62-.65-.51-2.65-.66-4.34-.42-4.58-1-9-1.24-13.64-.13-3.19-.49-6.29-.49-9.46S24,80,23.86,76.75c-.27-6-.75-12.63-.75-19.19,0-4.74.21-9.79-.08-14.68-.09-1.49-.21-3.57.5-4.25,1-1,4.49-.42,6.35-.52,2.22-.12,4.92-.17,6.68-.26a68.31,68.31,0,0,1,7,0c.86,0,2,.25,3.3.26,2.76,0,3.57-.43,3.71,2.87.13,3.1.24,6.71.24,9.64,0,4.78-.16,9.16.17,13,.54,6.22.37,12.52.75,19,.05,1.07.11,2.17.07,3.21-.06,1.93-.48,3.58.33,5.13,1.17,2.2,4.81,2.08,8.18,2.08,3.86,0,7.36.61,11.64.61,2.06,0,5-.11,5.77.69s.64,3.56.75,5C78.77,103,79.05,106.24,79.16,110Z"
		transform="translate(-12.29 -24.59)"
	></path>
</svg>


